# Original WroclawTheGame CC0 fallback mesh
o WTG_Fallback
v -2.3000 -0.9000 -0.3750
v 2.3000 -0.9000 -0.3750
v 2.3000 0.9000 -0.3750
v -2.3000 0.9000 -0.3750
v -2.3000 -0.9000 0.3750
v 2.3000 -0.9000 0.3750
v 2.3000 0.9000 0.3750
v -2.3000 0.9000 0.3750
v 2.3000 -0.6250 -0.2750
v 4.0000 -0.6250 -0.2750
v 4.0000 0.6250 -0.2750
v 2.3000 0.6250 -0.2750
v 2.3000 -0.6250 0.2750
v 4.0000 -0.6250 0.2750
v 4.0000 0.6250 0.2750
v 2.3000 0.6250 0.2750
f 1 2 3 4
f 5 8 7 6
f 1 5 6 2
f 2 6 7 3
f 3 7 8 4
f 5 1 4 8
f 9 10 11 12
f 13 16 15 14
f 9 13 14 10
f 10 14 15 11
f 11 15 16 12
f 13 9 12 16
