# Original WroclawTheGame CC0 fallback mesh
o WTG_Fallback
v -3.2500 -1.5000 -0.3500
v 3.2500 -1.5000 -0.3500
v 3.2500 1.5000 -0.3500
v -3.2500 1.5000 -0.3500
v -3.2500 -1.5000 0.3500
v 3.2500 -1.5000 0.3500
v 3.2500 1.5000 0.3500
v -3.2500 1.5000 0.3500
v -3.2500 -1.5000 0.3750
v 3.2500 -1.5000 0.3750
v 3.2500 1.5000 0.3750
v -3.2500 1.5000 0.3750
v -3.2500 -1.5000 0.7250
v 3.2500 -1.5000 0.7250
v 3.2500 1.5000 0.7250
v -3.2500 1.5000 0.7250
v -0.6000 -1.6000 0.6250
v 0.6000 -1.6000 0.6250
v 0.6000 1.6000 0.6250
v -0.6000 1.6000 0.6250
v -0.6000 -1.6000 0.8750
v 0.6000 -1.6000 0.8750
v 0.6000 1.6000 0.8750
v -0.6000 1.6000 0.8750
f 1 2 3 4
f 5 8 7 6
f 1 5 6 2
f 2 6 7 3
f 3 7 8 4
f 5 1 4 8
f 9 10 11 12
f 13 16 15 14
f 9 13 14 10
f 10 14 15 11
f 11 15 16 12
f 13 9 12 16
f 17 18 19 20
f 21 24 23 22
f 17 21 22 18
f 18 22 23 19
f 19 23 24 20
f 21 17 20 24
