# Blender v3.2.0 OBJ File: 'wall.blend'
# www.blender.org
mtllib wall.mtl
o wall_Cube.003
v -2.474982 -1.100000 -1.100000
v -2.474982 -1.100000 1.100000
v -2.474982 1.100000 1.100000
v -2.474982 1.100000 -1.100000
v -2.074982 1.100000 -1.100000
v -2.074982 -1.100000 -1.100000
v -2.074982 -1.100000 1.100000
v -2.074982 1.100000 1.100000
v -2.474982 -1.099961 1.099961
v -2.474982 0.004853 0.997468
v -2.474982 -0.997468 -0.004853
v -2.474982 -1.071527 1.084381
v -2.474982 -1.019318 1.068490
v -2.474982 -0.944282 1.053599
v -2.474982 -0.848385 1.039903
v -2.474982 -0.734016 1.027498
v -2.474982 -1.084381 1.071527
v -2.474982 -1.047744 1.043585
v -2.474982 -0.999339 1.025906
v -2.474982 -0.935693 1.013923
v -2.474982 -0.855814 1.003705
v -2.474982 -0.760825 0.994286
v -2.474982 -1.068490 1.019318
v -2.474982 -1.028548 0.992822
v -2.474982 -0.982395 0.978147
v -2.474982 -0.928166 0.970590
v -2.474982 -0.863358 0.964723
v -2.474982 -0.787968 0.958484
v -2.474982 -1.053600 0.944282
v -2.474982 -1.014909 0.929375
v -2.474982 -0.971953 0.924032
v -2.474982 -0.924948 0.923708
v -2.474982 -0.872282 0.923659
v -2.474982 -0.813578 0.920938
v -2.474982 -1.039903 0.848386
v -2.474982 -1.003970 0.851729
v -2.474982 -0.964956 0.860749
v -2.474982 -0.923825 0.871519
v -2.474982 -0.880336 0.880245
v -2.474982 -0.835567 0.882836
v -2.474982 -0.850590 0.850590
v -2.474982 -0.151771 0.983982
v -2.474982 -0.304628 0.947681
v -2.474982 -0.449854 0.887526
v -2.474982 -0.583609 0.805108
v -2.474982 -0.703895 0.703895
v -2.474982 -0.153227 0.998848
v -2.474982 -0.282131 0.975534
v -2.474982 -0.408671 0.940962
v -2.474982 -0.528903 0.889916
v -2.474982 -0.639000 0.821482
v -2.474982 -0.736923 0.737703
v -2.474982 -0.309939 1.002567
v -2.474982 -0.410614 0.973311
v -2.474982 -0.510740 0.938361
v -2.474982 -0.605888 0.893802
v -2.474982 -0.692733 0.837656
v -2.474982 -0.770217 0.770821
v -2.474982 -0.461424 1.008725
v -2.474982 -0.535201 0.977183
v -2.474982 -0.609523 0.942213
v -2.474982 -0.679829 0.901903
v -2.474982 -0.744122 0.855279
v -2.474982 -0.802713 0.802887
v -2.474982 -0.603946 1.017185
v -2.474982 -0.653297 0.984492
v -2.474982 -0.702882 0.949838
v -2.474982 -0.749468 0.912154
v -2.474982 -0.791669 0.871857
v -2.474982 -0.831010 0.831030
v -2.474982 -0.998848 0.153227
v -2.474982 -1.002567 0.309939
v -2.474982 -1.008725 0.461424
v -2.474982 -1.017185 0.603946
v -2.474982 -1.027498 0.734016
v -2.474982 -0.983982 0.151771
v -2.474982 -0.970857 0.281698
v -2.474982 -0.970111 0.411506
v -2.474982 -0.975787 0.537100
v -2.474982 -0.983978 0.654592
v -2.474982 -0.993265 0.760697
v -2.474982 -0.947681 0.304628
v -2.474982 -0.934026 0.406840
v -2.474982 -0.933723 0.510311
v -2.474982 -0.940571 0.610334
v -2.474982 -0.949429 0.703459
v -2.474982 -0.957997 0.787602
v -2.474982 -0.887526 0.449854
v -2.474982 -0.883269 0.526258
v -2.474982 -0.889471 0.604525
v -2.474982 -0.900566 0.679707
v -2.474982 -0.911937 0.749593
v -2.474982 -0.920565 0.813617
v -2.474982 -0.805108 0.583609
v -2.474982 -0.817244 0.637256
v -2.474982 -0.834993 0.691867
v -2.474982 -0.854502 0.743904
v -2.474982 -0.871761 0.791660
v -2.474982 -0.882501 0.835714
v -2.474982 1.099961 1.099961
v -2.474982 0.997468 -0.004853
v -2.474982 -0.004853 0.997468
v -2.474982 1.084381 1.071527
v -2.474982 1.068490 1.019318
v -2.474982 1.053599 0.944282
v -2.474982 1.039903 0.848385
v -2.474982 1.027498 0.734016
v -2.474982 1.071527 1.084381
v -2.474982 1.043585 1.047744
v -2.474982 1.025906 0.999339
v -2.474982 1.013923 0.935693
v -2.474982 1.003705 0.855814
v -2.474982 0.994286 0.760825
v -2.474982 1.019318 1.068490
v -2.474982 0.992822 1.028548
v -2.474982 0.978147 0.982395
v -2.474982 0.970590 0.928166
v -2.474982 0.964723 0.863358
v -2.474982 0.958484 0.787968
v -2.474982 0.944282 1.053600
v -2.474982 0.929375 1.014909
v -2.474982 0.924032 0.971953
v -2.474982 0.923708 0.924948
v -2.474982 0.923659 0.872282
v -2.474982 0.920938 0.813578
v -2.474982 0.848386 1.039903
v -2.474982 0.851729 1.003970
v -2.474982 0.860749 0.964956
v -2.474982 0.871519 0.923825
v -2.474982 0.880245 0.880336
v -2.474982 0.882836 0.835567
v -2.474982 0.850590 0.850590
v -2.474982 0.983982 0.151771
v -2.474982 0.947681 0.304628
v -2.474982 0.887526 0.449854
v -2.474982 0.805108 0.583609
v -2.474982 0.703895 0.703895
v -2.474982 0.998848 0.153227
v -2.474982 0.975534 0.282131
v -2.474982 0.940962 0.408671
v -2.474982 0.889916 0.528903
v -2.474982 0.821482 0.639000
v -2.474982 0.737703 0.736923
v -2.474982 1.002567 0.309939
v -2.474982 0.973311 0.410614
v -2.474982 0.938361 0.510740
v -2.474982 0.893802 0.605888
v -2.474982 0.837656 0.692733
v -2.474982 0.770821 0.770217
v -2.474982 1.008725 0.461424
v -2.474982 0.977183 0.535201
v -2.474982 0.942213 0.609523
v -2.474982 0.901903 0.679829
v -2.474982 0.855279 0.744122
v -2.474982 0.802887 0.802713
v -2.474982 1.017185 0.603946
v -2.474982 0.984492 0.653297
v -2.474982 0.949838 0.702882
v -2.474982 0.912154 0.749468
v -2.474982 0.871857 0.791669
v -2.474982 0.831030 0.831010
v -2.474982 0.153227 0.998848
v -2.474982 0.309939 1.002567
v -2.474982 0.461424 1.008725
v -2.474982 0.603946 1.017185
v -2.474982 0.734016 1.027498
v -2.474982 0.151771 0.983982
v -2.474982 0.281698 0.970857
v -2.474982 0.411506 0.970111
v -2.474982 0.537100 0.975787
v -2.474982 0.654592 0.983978
v -2.474982 0.760697 0.993265
v -2.474982 0.304628 0.947681
v -2.474982 0.406840 0.934026
v -2.474982 0.510311 0.933723
v -2.474982 0.610334 0.940571
v -2.474982 0.703459 0.949429
v -2.474982 0.787602 0.957997
v -2.474982 0.449854 0.887526
v -2.474982 0.526258 0.883269
v -2.474982 0.604525 0.889471
v -2.474982 0.679707 0.900566
v -2.474982 0.749593 0.911937
v -2.474982 0.813617 0.920565
v -2.474982 0.583609 0.805108
v -2.474982 0.637256 0.817244
v -2.474982 0.691867 0.834993
v -2.474982 0.743904 0.854502
v -2.474982 0.791660 0.871761
v -2.474982 0.835714 0.882501
v -2.474982 -0.997468 0.004853
v -2.474982 0.004853 -0.997468
v -2.474982 -1.099961 -1.099961
v -2.474982 -0.983982 -0.151771
v -2.474982 -0.947681 -0.304628
v -2.474982 -0.887526 -0.449854
v -2.474982 -0.805108 -0.583609
v -2.474982 -0.703895 -0.703895
v -2.474982 -0.998848 -0.153227
v -2.474982 -0.975534 -0.282131
v -2.474982 -0.940962 -0.408671
v -2.474982 -0.889916 -0.528903
v -2.474982 -0.821482 -0.639000
v -2.474982 -0.737703 -0.736923
v -2.474982 -1.002567 -0.309939
v -2.474982 -0.973311 -0.410614
v -2.474982 -0.938361 -0.510740
v -2.474982 -0.893802 -0.605888
v -2.474982 -0.837656 -0.692733
v -2.474982 -0.770821 -0.770217
v -2.474982 -1.008725 -0.461424
v -2.474982 -0.977183 -0.535201
v -2.474982 -0.942213 -0.609523
v -2.474982 -0.901903 -0.679829
v -2.474982 -0.855279 -0.744122
v -2.474982 -0.802887 -0.802713
v -2.474982 -1.017185 -0.603946
v -2.474982 -0.984492 -0.653297
v -2.474982 -0.949838 -0.702882
v -2.474982 -0.912154 -0.749468
v -2.474982 -0.871857 -0.791669
v -2.474982 -0.831030 -0.831010
v -2.474982 -0.850590 -0.850590
v -2.474982 -0.153227 -0.998848
v -2.474982 -0.309939 -1.002567
v -2.474982 -0.461424 -1.008725
v -2.474982 -0.603946 -1.017185
v -2.474982 -0.734016 -1.027498
v -2.474982 -0.151771 -0.983982
v -2.474982 -0.281698 -0.970857
v -2.474982 -0.411506 -0.970111
v -2.474982 -0.537100 -0.975787
v -2.474982 -0.654592 -0.983978
v -2.474982 -0.760697 -0.993265
v -2.474982 -0.304628 -0.947681
v -2.474982 -0.406840 -0.934026
v -2.474982 -0.510311 -0.933723
v -2.474982 -0.610334 -0.940571
v -2.474982 -0.703459 -0.949429
v -2.474982 -0.787602 -0.957997
v -2.474982 -0.449854 -0.887526
v -2.474982 -0.526258 -0.883269
v -2.474982 -0.604525 -0.889471
v -2.474982 -0.679707 -0.900566
v -2.474982 -0.749593 -0.911937
v -2.474982 -0.813617 -0.920565
v -2.474982 -0.583609 -0.805108
v -2.474982 -0.637256 -0.817244
v -2.474982 -0.691867 -0.834993
v -2.474982 -0.743904 -0.854502
v -2.474982 -0.791660 -0.871761
v -2.474982 -0.835714 -0.882501
v -2.474982 -1.084381 -1.071527
v -2.474982 -1.068490 -1.019318
v -2.474982 -1.053599 -0.944282
v -2.474982 -1.039903 -0.848385
v -2.474982 -1.027498 -0.734016
v -2.474982 -1.071527 -1.084381
v -2.474982 -1.043585 -1.047744
v -2.474982 -1.025906 -0.999339
v -2.474982 -1.013923 -0.935693
v -2.474982 -1.003705 -0.855814
v -2.474982 -0.994286 -0.760825
v -2.474982 -1.019318 -1.068490
v -2.474982 -0.992822 -1.028548
v -2.474982 -0.978147 -0.982395
v -2.474982 -0.970590 -0.928166
v -2.474982 -0.964723 -0.863358
v -2.474982 -0.958484 -0.787968
v -2.474982 -0.944282 -1.053600
v -2.474982 -0.929375 -1.014909
v -2.474982 -0.924032 -0.971953
v -2.474982 -0.923708 -0.924948
v -2.474982 -0.923659 -0.872282
v -2.474982 -0.920938 -0.813578
v -2.474982 -0.848386 -1.039903
v -2.474982 -0.851729 -1.003970
v -2.474982 -0.860749 -0.964956
v -2.474982 -0.871519 -0.923825
v -2.474982 -0.880245 -0.880336
v -2.474982 -0.882836 -0.835567
v -2.474982 1.099961 -1.099961
v -2.474982 -0.004853 -0.997468
v -2.474982 0.997468 0.004853
v -2.474982 1.071527 -1.084381
v -2.474982 1.019318 -1.068490
v -2.474982 0.944282 -1.053599
v -2.474982 0.848385 -1.039903
v -2.474982 0.734016 -1.027498
v -2.474982 1.084381 -1.071527
v -2.474982 1.047744 -1.043585
v -2.474982 0.999339 -1.025906
v -2.474982 0.935693 -1.013923
v -2.474982 0.855814 -1.003705
v -2.474982 0.760825 -0.994286
v -2.474982 1.068490 -1.019318
v -2.474982 1.028548 -0.992822
v -2.474982 0.982395 -0.978147
v -2.474982 0.928166 -0.970590
v -2.474982 0.863358 -0.964723
v -2.474982 0.787968 -0.958484
v -2.474982 1.053600 -0.944282
v -2.474982 1.014909 -0.929375
v -2.474982 0.971953 -0.924032
v -2.474982 0.924948 -0.923708
v -2.474982 0.872282 -0.923659
v -2.474982 0.813578 -0.920938
v -2.474982 1.039903 -0.848386
v -2.474982 1.003970 -0.851729
v -2.474982 0.964956 -0.860749
v -2.474982 0.923825 -0.871519
v -2.474982 0.880336 -0.880245
v -2.474982 0.835567 -0.882836
v -2.474982 0.850590 -0.850590
v -2.474982 0.151771 -0.983982
v -2.474982 0.304628 -0.947681
v -2.474982 0.449854 -0.887526
v -2.474982 0.583609 -0.805108
v -2.474982 0.703895 -0.703895
v -2.474982 0.153227 -0.998848
v -2.474982 0.282131 -0.975534
v -2.474982 0.408671 -0.940962
v -2.474982 0.528903 -0.889916
v -2.474982 0.639000 -0.821482
v -2.474982 0.736923 -0.737703
v -2.474982 0.309939 -1.002567
v -2.474982 0.410614 -0.973311
v -2.474982 0.510740 -0.938361
v -2.474982 0.605888 -0.893802
v -2.474982 0.692733 -0.837656
v -2.474982 0.770217 -0.770821
v -2.474982 0.461424 -1.008725
v -2.474982 0.535201 -0.977183
v -2.474982 0.609523 -0.942213
v -2.474982 0.679829 -0.901903
v -2.474982 0.744122 -0.855279
v -2.474982 0.802713 -0.802887
v -2.474982 0.603946 -1.017185
v -2.474982 0.653297 -0.984492
v -2.474982 0.702882 -0.949838
v -2.474982 0.749468 -0.912154
v -2.474982 0.791669 -0.871857
v -2.474982 0.831010 -0.831030
v -2.474982 0.998848 -0.153227
v -2.474982 1.002567 -0.309939
v -2.474982 1.008725 -0.461424
v -2.474982 1.017185 -0.603946
v -2.474982 1.027498 -0.734016
v -2.474982 0.983982 -0.151771
v -2.474982 0.970857 -0.281698
v -2.474982 0.970111 -0.411506
v -2.474982 0.975787 -0.537100
v -2.474982 0.983978 -0.654592
v -2.474982 0.993265 -0.760697
v -2.474982 0.947681 -0.304628
v -2.474982 0.934026 -0.406840
v -2.474982 0.933723 -0.510311
v -2.474982 0.940571 -0.610334
v -2.474982 0.949429 -0.703459
v -2.474982 0.957997 -0.787602
v -2.474982 0.887526 -0.449854
v -2.474982 0.883269 -0.526258
v -2.474982 0.889471 -0.604525
v -2.474982 0.900566 -0.679707
v -2.474982 0.911937 -0.749593
v -2.474982 0.920565 -0.813617
v -2.474982 0.805108 -0.583609
v -2.474982 0.817244 -0.637256
v -2.474982 0.834993 -0.691867
v -2.474982 0.854502 -0.743904
v -2.474982 0.871761 -0.791660
v -2.474982 0.882501 -0.835714
v -2.074982 -0.997468 -0.004853
v -2.074982 0.004853 0.997468
v -2.074982 -1.099961 1.099961
v -2.074982 -0.983982 0.151771
v -2.074982 -0.947681 0.304628
v -2.074982 -0.887526 0.449854
v -2.074982 -0.805108 0.583609
v -2.074982 -0.703895 0.703895
v -2.074982 -0.998848 0.153227
v -2.074982 -0.975534 0.282131
v -2.074982 -0.940962 0.408671
v -2.074982 -0.889916 0.528903
v -2.074982 -0.821482 0.639000
v -2.074982 -0.737703 0.736923
v -2.074982 -1.002567 0.309939
v -2.074982 -0.973311 0.410614
v -2.074982 -0.938361 0.510740
v -2.074982 -0.893802 0.605888
v -2.074982 -0.837656 0.692733
v -2.074982 -0.770821 0.770217
v -2.074982 -1.008725 0.461424
v -2.074982 -0.977183 0.535201
v -2.074982 -0.942213 0.609523
v -2.074982 -0.901903 0.679829
v -2.074982 -0.855279 0.744122
v -2.074982 -0.802887 0.802713
v -2.074982 -1.017185 0.603946
v -2.074982 -0.984492 0.653297
v -2.074982 -0.949838 0.702882
v -2.074982 -0.912154 0.749468
v -2.074982 -0.871857 0.791669
v -2.074982 -0.831030 0.831010
v -2.074982 -0.850590 0.850590
v -2.074982 -0.153227 0.998848
v -2.074982 -0.309939 1.002567
v -2.074982 -0.461424 1.008725
v -2.074982 -0.603946 1.017185
v -2.074982 -0.734016 1.027498
v -2.074982 -0.151771 0.983982
v -2.074982 -0.281698 0.970857
v -2.074982 -0.411506 0.970111
v -2.074982 -0.537100 0.975787
v -2.074982 -0.654592 0.983978
v -2.074982 -0.760697 0.993265
v -2.074982 -0.304628 0.947681
v -2.074982 -0.406840 0.934026
v -2.074982 -0.510311 0.933723
v -2.074982 -0.610334 0.940571
v -2.074982 -0.703459 0.949429
v -2.074982 -0.787602 0.957997
v -2.074982 -0.449854 0.887526
v -2.074982 -0.526258 0.883269
v -2.074982 -0.604525 0.889471
v -2.074982 -0.679707 0.900566
v -2.074982 -0.749593 0.911937
v -2.074982 -0.813617 0.920565
v -2.074982 -0.583609 0.805108
v -2.074982 -0.637256 0.817244
v -2.074982 -0.691867 0.834993
v -2.074982 -0.743904 0.854502
v -2.074982 -0.791660 0.871761
v -2.074982 -0.835714 0.882501
v -2.074982 -1.084381 1.071527
v -2.074982 -1.068490 1.019318
v -2.074982 -1.053599 0.944282
v -2.074982 -1.039903 0.848385
v -2.074982 -1.027498 0.734016
v -2.074982 -1.071527 1.084381
v -2.074982 -1.043585 1.047744
v -2.074982 -1.025906 0.999339
v -2.074982 -1.013923 0.935693
v -2.074982 -1.003705 0.855814
v -2.074982 -0.994286 0.760825
v -2.074982 -1.019318 1.068490
v -2.074982 -0.992822 1.028548
v -2.074982 -0.978147 0.982395
v -2.074982 -0.970590 0.928166
v -2.074982 -0.964723 0.863358
v -2.074982 -0.958484 0.787968
v -2.074982 -0.944282 1.053600
v -2.074982 -0.929375 1.014909
v -2.074982 -0.924032 0.971953
v -2.074982 -0.923708 0.924948
v -2.074982 -0.923659 0.872282
v -2.074982 -0.920938 0.813578
v -2.074982 -0.848386 1.039903
v -2.074982 -0.851729 1.003970
v -2.074982 -0.860749 0.964956
v -2.074982 -0.871519 0.923825
v -2.074982 -0.880245 0.880336
v -2.074982 -0.882836 0.835567
v -2.074982 1.099961 1.099961
v -2.074982 -0.004853 0.997468
v -2.074982 0.997468 -0.004853
v -2.074982 1.071527 1.084381
v -2.074982 1.019318 1.068490
v -2.074982 0.944282 1.053599
v -2.074982 0.848385 1.039903
v -2.074982 0.734016 1.027498
v -2.074982 1.084381 1.071527
v -2.074982 1.047744 1.043585
v -2.074982 0.999339 1.025906
v -2.074982 0.935693 1.013923
v -2.074982 0.855814 1.003705
v -2.074982 0.760825 0.994286
v -2.074982 1.068490 1.019318
v -2.074982 1.028548 0.992822
v -2.074982 0.982395 0.978147
v -2.074982 0.928166 0.970590
v -2.074982 0.863358 0.964723
v -2.074982 0.787968 0.958484
v -2.074982 1.053600 0.944282
v -2.074982 1.014909 0.929375
v -2.074982 0.971953 0.924032
v -2.074982 0.924948 0.923708
v -2.074982 0.872282 0.923659
v -2.074982 0.813578 0.920938
v -2.074982 1.039903 0.848386
v -2.074982 1.003970 0.851729
v -2.074982 0.964956 0.860749
v -2.074982 0.923825 0.871519
v -2.074982 0.880336 0.880245
v -2.074982 0.835567 0.882836
v -2.074982 0.850590 0.850590
v -2.074982 0.151771 0.983982
v -2.074982 0.304628 0.947681
v -2.074982 0.449854 0.887526
v -2.074982 0.583609 0.805108
v -2.074982 0.703895 0.703895
v -2.074982 0.153227 0.998848
v -2.074982 0.282131 0.975534
v -2.074982 0.408671 0.940962
v -2.074982 0.528903 0.889916
v -2.074982 0.639000 0.821482
v -2.074982 0.736923 0.737703
v -2.074982 0.309939 1.002567
v -2.074982 0.410614 0.973311
v -2.074982 0.510740 0.938361
v -2.074982 0.605888 0.893802
v -2.074982 0.692733 0.837656
v -2.074982 0.770217 0.770821
v -2.074982 0.461424 1.008725
v -2.074982 0.535201 0.977183
v -2.074982 0.609523 0.942213
v -2.074982 0.679829 0.901903
v -2.074982 0.744122 0.855279
v -2.074982 0.802713 0.802887
v -2.074982 0.603946 1.017185
v -2.074982 0.653297 0.984492
v -2.074982 0.702882 0.949838
v -2.074982 0.749468 0.912154
v -2.074982 0.791669 0.871857
v -2.074982 0.831010 0.831030
v -2.074982 0.998848 0.153227
v -2.074982 1.002567 0.309939
v -2.074982 1.008725 0.461424
v -2.074982 1.017185 0.603946
v -2.074982 1.027498 0.734016
v -2.074982 0.983982 0.151771
v -2.074982 0.970857 0.281698
v -2.074982 0.970111 0.411506
v -2.074982 0.975787 0.537100
v -2.074982 0.983978 0.654592
v -2.074982 0.993265 0.760697
v -2.074982 0.947681 0.304628
v -2.074982 0.934026 0.406840
v -2.074982 0.933723 0.510311
v -2.074982 0.940571 0.610334
v -2.074982 0.949429 0.703459
v -2.074982 0.957997 0.787602
v -2.074982 0.887526 0.449854
v -2.074982 0.883269 0.526258
v -2.074982 0.889471 0.604525
v -2.074982 0.900566 0.679707
v -2.074982 0.911937 0.749593
v -2.074982 0.920565 0.813617
v -2.074982 0.805108 0.583609
v -2.074982 0.817244 0.637256
v -2.074982 0.834993 0.691867
v -2.074982 0.854502 0.743904
v -2.074982 0.871761 0.791660
v -2.074982 0.882501 0.835714
v -2.074982 0.004853 -0.997468
v -2.074982 -0.997468 0.004853
v -2.074982 -1.099961 -1.099961
v -2.074982 -0.151771 -0.983982
v -2.074982 -0.304628 -0.947681
v -2.074982 -0.449854 -0.887526
v -2.074982 -0.583609 -0.805108
v -2.074982 -0.703895 -0.703895
v -2.074982 -0.153227 -0.998848
v -2.074982 -0.282131 -0.975534
v -2.074982 -0.408671 -0.940962
v -2.074982 -0.528903 -0.889916
v -2.074982 -0.639000 -0.821482
v -2.074982 -0.736923 -0.737703
v -2.074982 -0.309939 -1.002567
v -2.074982 -0.410614 -0.973311
v -2.074982 -0.510740 -0.938361
v -2.074982 -0.605888 -0.893802
v -2.074982 -0.692733 -0.837656
v -2.074982 -0.770217 -0.770821
v -2.074982 -0.461424 -1.008725
v -2.074982 -0.535201 -0.977183
v -2.074982 -0.609523 -0.942213
v -2.074982 -0.679829 -0.901903
v -2.074982 -0.744122 -0.855279
v -2.074982 -0.802713 -0.802887
v -2.074982 -0.603946 -1.017185
v -2.074982 -0.653297 -0.984492
v -2.074982 -0.702882 -0.949838
v -2.074982 -0.749468 -0.912154
v -2.074982 -0.791669 -0.871857
v -2.074982 -0.831010 -0.831030
v -2.074982 -0.850590 -0.850590
v -2.074982 -0.998848 -0.153227
v -2.074982 -1.002567 -0.309939
v -2.074982 -1.008725 -0.461424
v -2.074982 -1.017185 -0.603946
v -2.074982 -1.027498 -0.734016
v -2.074982 -0.983982 -0.151771
v -2.074982 -0.970857 -0.281698
v -2.074982 -0.970111 -0.411506
v -2.074982 -0.975787 -0.537100
v -2.074982 -0.983978 -0.654592
v -2.074982 -0.993265 -0.760697
v -2.074982 -0.947681 -0.304628
v -2.074982 -0.934026 -0.406840
v -2.074982 -0.933723 -0.510311
v -2.074982 -0.940571 -0.610334
v -2.074982 -0.949429 -0.703459
v -2.074982 -0.957997 -0.787602
v -2.074982 -0.887526 -0.449854
v -2.074982 -0.883269 -0.526258
v -2.074982 -0.889471 -0.604525
v -2.074982 -0.900566 -0.679707
v -2.074982 -0.911937 -0.749593
v -2.074982 -0.920565 -0.813617
v -2.074982 -0.805108 -0.583609
v -2.074982 -0.817244 -0.637256
v -2.074982 -0.834993 -0.691867
v -2.074982 -0.854502 -0.743904
v -2.074982 -0.871761 -0.791660
v -2.074982 -0.882501 -0.835714
v -2.074982 -1.071527 -1.084381
v -2.074982 -1.019318 -1.068490
v -2.074982 -0.944282 -1.053599
v -2.074982 -0.848385 -1.039903
v -2.074982 -0.734016 -1.027498
v -2.074982 -1.084381 -1.071527
v -2.074982 -1.047744 -1.043585
v -2.074982 -0.999339 -1.025906
v -2.074982 -0.935693 -1.013923
v -2.074982 -0.855814 -1.003705
v -2.074982 -0.760825 -0.994286
v -2.074982 -1.068490 -1.019318
v -2.074982 -1.028548 -0.992822
v -2.074982 -0.982395 -0.978147
v -2.074982 -0.928166 -0.970590
v -2.074982 -0.863358 -0.964723
v -2.074982 -0.787968 -0.958484
v -2.074982 -1.053600 -0.944282
v -2.074982 -1.014909 -0.929375
v -2.074982 -0.971953 -0.924032
v -2.074982 -0.924948 -0.923708
v -2.074982 -0.872282 -0.923659
v -2.074982 -0.813578 -0.920938
v -2.074982 -1.039903 -0.848386
v -2.074982 -1.003970 -0.851729
v -2.074982 -0.964956 -0.860749
v -2.074982 -0.923825 -0.871519
v -2.074982 -0.880336 -0.880245
v -2.074982 -0.835567 -0.882836
v -2.074982 1.099961 -1.099961
v -2.074982 0.997468 0.004853
v -2.074982 -0.004853 -0.997468
v -2.074982 1.084381 -1.071527
v -2.074982 1.068490 -1.019318
v -2.074982 1.053599 -0.944282
v -2.074982 1.039903 -0.848385
v -2.074982 1.027498 -0.734016
v -2.074982 1.071527 -1.084381
v -2.074982 1.043585 -1.047744
v -2.074982 1.025906 -0.999339
v -2.074982 1.013923 -0.935693
v -2.074982 1.003705 -0.855814
v -2.074982 0.994286 -0.760825
v -2.074982 1.019318 -1.068490
v -2.074982 0.992822 -1.028548
v -2.074982 0.978147 -0.982395
v -2.074982 0.970590 -0.928166
v -2.074982 0.964723 -0.863358
v -2.074982 0.958484 -0.787968
v -2.074982 0.944282 -1.053600
v -2.074982 0.929375 -1.014909
v -2.074982 0.924032 -0.971953
v -2.074982 0.923708 -0.924948
v -2.074982 0.923659 -0.872282
v -2.074982 0.920938 -0.813578
v -2.074982 0.848386 -1.039903
v -2.074982 0.851729 -1.003970
v -2.074982 0.860749 -0.964956
v -2.074982 0.871519 -0.923825
v -2.074982 0.880245 -0.880336
v -2.074982 0.882836 -0.835567
v -2.074982 0.850590 -0.850590
v -2.074982 0.983982 -0.151771
v -2.074982 0.947681 -0.304628
v -2.074982 0.887526 -0.449854
v -2.074982 0.805108 -0.583609
v -2.074982 0.703895 -0.703895
v -2.074982 0.998848 -0.153227
v -2.074982 0.975534 -0.282131
v -2.074982 0.940962 -0.408671
v -2.074982 0.889916 -0.528903
v -2.074982 0.821482 -0.639000
v -2.074982 0.737703 -0.736923
v -2.074982 1.002567 -0.309939
v -2.074982 0.973311 -0.410614
v -2.074982 0.938361 -0.510740
v -2.074982 0.893802 -0.605888
v -2.074982 0.837656 -0.692733
v -2.074982 0.770821 -0.770217
v -2.074982 1.008725 -0.461424
v -2.074982 0.977183 -0.535201
v -2.074982 0.942213 -0.609523
v -2.074982 0.901903 -0.679829
v -2.074982 0.855279 -0.744122
v -2.074982 0.802887 -0.802713
v -2.074982 1.017185 -0.603946
v -2.074982 0.984492 -0.653297
v -2.074982 0.949838 -0.702882
v -2.074982 0.912154 -0.749468
v -2.074982 0.871857 -0.791669
v -2.074982 0.831030 -0.831010
v -2.074982 0.153227 -0.998848
v -2.074982 0.309939 -1.002567
v -2.074982 0.461424 -1.008725
v -2.074982 0.603946 -1.017185
v -2.074982 0.734016 -1.027498
v -2.074982 0.151771 -0.983982
v -2.074982 0.281698 -0.970857
v -2.074982 0.411506 -0.970111
v -2.074982 0.537100 -0.975787
v -2.074982 0.654592 -0.983978
v -2.074982 0.760697 -0.993265
v -2.074982 0.304628 -0.947681
v -2.074982 0.406840 -0.934026
v -2.074982 0.510311 -0.933723
v -2.074982 0.610334 -0.940571
v -2.074982 0.703459 -0.949429
v -2.074982 0.787602 -0.957997
v -2.074982 0.449854 -0.887526
v -2.074982 0.526258 -0.883269
v -2.074982 0.604525 -0.889471
v -2.074982 0.679707 -0.900566
v -2.074982 0.749593 -0.911937
v -2.074982 0.813617 -0.920565
v -2.074982 0.583609 -0.805108
v -2.074982 0.637256 -0.817244
v -2.074982 0.691867 -0.834993
v -2.074982 0.743904 -0.854502
v -2.074982 0.791660 -0.871761
v -2.074982 0.835714 -0.882501
vt 0.051587 1.529116
vt 0.058238 1.525472
vt 0.070449 1.521755
vt 0.087999 1.518272
vt 0.110429 1.515069
vt 0.137179 1.512168
vt 0.167601 1.509755
vt 0.200936 1.507778
vt 0.236367 1.506336
vt 0.273021 1.505466
vt 0.309994 1.505144
vt 0.307724 1.505144
vt 0.344698 1.505466
vt 0.381352 1.506336
vt 0.416783 1.507778
vt 0.450117 1.509755
vt 0.480540 1.512168
vt 0.507290 1.515069
vt 0.529719 1.518272
vt 0.547270 1.521755
vt 0.559481 1.525472
vt 0.566132 1.529116
vt 0.566141 1.529125
vt 0.051578 1.529125
vt 0.566141 1.014563
vt 0.051578 1.014563
vt 0.051578 0.500000
vt 0.566141 0.500000
vt 0.566132 -0.014553
vt 0.559481 -0.010910
vt 0.547270 -0.007192
vt 0.529719 -0.003709
vt 0.507290 -0.000506
vt 0.480540 0.002396
vt 0.450118 0.004808
vt 0.416783 0.006785
vt 0.381352 0.008227
vt 0.344698 0.009097
vt 0.307724 0.009418
vt 0.309994 0.009418
vt 0.273021 0.009097
vt 0.236367 0.008225
vt 0.200936 0.006785
vt 0.167601 0.004808
vt 0.137179 0.002396
vt 0.110429 -0.000506
vt 0.087999 -0.003709
vt 0.070449 -0.007194
vt 0.058238 -0.010910
vt 0.051587 -0.014554
vt 0.051578 -0.014564
vt 0.566141 -0.014564
vt 0.051578 -0.529125
vt 0.566141 -0.529125
vt 1.080703 0.500000
vt 1.080703 -0.014564
vt -0.462984 0.500000
vt -0.462984 -0.014564
vt 0.309994 0.476018
vt 0.309994 1.038544
vt 0.307724 1.038544
vt 0.307724 0.476018
vt 0.051587 1.014572
vt 0.055232 1.021223
vt 0.058948 1.033433
vt 0.062431 1.050984
vt 0.065634 1.073414
vt 0.068536 1.100163
vt 0.070948 1.130586
vt 0.072926 1.163920
vt 0.074367 1.199351
vt 0.075237 1.236006
vt 0.075560 1.272979
vt 0.075560 1.270708
vt 0.075237 1.307683
vt 0.074367 1.344337
vt 0.072926 1.379768
vt 0.070948 1.413103
vt 0.068536 1.443524
vt 0.065634 1.470275
vt 0.062431 1.492704
vt 0.058948 1.510255
vt 0.055231 1.522467
vt 0.566132 1.014572
vt 0.559481 1.018216
vt 0.547270 1.021933
vt 0.529719 1.025415
vt 0.507290 1.028619
vt 0.480540 1.031521
vt 0.450118 1.033932
vt 0.416783 1.035911
vt 0.381352 1.037352
vt 0.344698 1.038221
vt 0.273021 1.038221
vt 0.236367 1.037352
vt 0.200936 1.035911
vt 0.167601 1.033932
vt 0.137179 1.031521
vt 0.110429 1.028618
vt 0.087999 1.025415
vt 0.070449 1.021933
vt 0.058238 1.018216
vt 0.566132 0.499991
vt 0.562488 0.493340
vt 0.558771 0.481128
vt 0.555288 0.463579
vt 0.552085 0.441150
vt 0.549183 0.414400
vt 0.546771 0.383976
vt 0.544792 0.350641
vt 0.543352 0.315211
vt 0.542482 0.278558
vt 0.542159 0.241583
vt 0.542159 0.243854
vt 0.542482 0.206880
vt 0.543352 0.170227
vt 0.544792 0.134795
vt 0.546771 0.101460
vt 0.549183 0.071039
vt 0.552085 0.044289
vt 0.555288 0.021859
vt 0.558771 0.004308
vt 0.562488 -0.007903
vt 1.337984 1.529125
vt 1.337984 1.529125
vt 1.337984 1.529125
vt 0.051587 0.499991
vt 0.058238 0.496347
vt 0.070449 0.492630
vt 0.087999 0.489147
vt 0.110429 0.485944
vt 0.137179 0.483043
vt 0.167601 0.480630
vt 0.200936 0.478651
vt 0.236367 0.477211
vt 0.273021 0.476342
vt 0.344698 0.476342
vt 0.381352 0.477211
vt 0.416783 0.478651
vt 0.450117 0.480630
vt 0.480540 0.483043
vt 0.507290 0.485944
vt 0.529719 0.489147
vt 0.547270 0.492630
vt 0.559481 0.496347
vt 0.055232 -0.007903
vt 0.058948 0.004308
vt 0.062431 0.021859
vt 0.065634 0.044289
vt 0.068536 0.071039
vt 0.070948 0.101460
vt 0.072926 0.134795
vt 0.074367 0.170227
vt 0.075237 0.206880
vt 0.075560 0.243854
vt 0.075560 0.241583
vt 0.075237 0.278558
vt 0.074367 0.315211
vt 0.072926 0.350641
vt 0.070948 0.383976
vt 0.068536 0.414400
vt 0.065634 0.441150
vt 0.062431 0.463579
vt 0.058948 0.481128
vt 0.055231 0.493340
vt 0.553432 1.516416
vt 0.562488 1.522465
vt 0.542597 1.511795
vt 0.553918 1.515930
vt 0.527711 1.508993
vt 0.509027 1.506602
vt 0.486810 1.504399
vt 0.549429 1.504057
vt 0.558771 1.510255
vt 0.542159 1.505144
vt 0.525951 1.498857
vt 0.538634 1.500626
vt 0.510793 1.497485
vt 0.493159 1.496025
vt 0.546239 1.489218
vt 0.555288 1.492704
vt 0.536192 1.487967
vt 0.542159 1.505144
vt 0.512880 1.487880
vt 0.525197 1.487892
vt 0.499149 1.487244
vt 0.543680 1.471057
vt 0.552085 1.470275
vt 0.534555 1.473166
vt 0.524935 1.475685
vt 0.542159 1.505144
vt 0.504292 1.478333
vt 0.514763 1.477726
vt 0.541176 1.449765
vt 0.549183 1.443524
vt 0.532927 1.456059
vt 0.524172 1.462142
vt 0.515270 1.467310
vt 0.530708 1.493691
vt 0.344357 1.501988
vt 0.374848 1.505144
vt 0.380109 1.493500
vt 0.404444 1.491928
vt 0.374848 1.500014
vt 0.414077 1.479429
vt 0.432566 1.479988
vt 0.445361 1.460153
vt 0.458317 1.463983
vt 0.473495 1.436480
vt 0.481220 1.444386
vt 0.404899 1.499495
vt 0.428317 1.505144
vt 0.450572 1.480896
vt 0.428317 1.491320
vt 0.470884 1.467764
vt 0.489008 1.452132
vt 0.434038 1.500399
vt 0.451422 1.492220
vt 0.467866 1.505144
vt 0.482904 1.471887
vt 0.467866 1.482791
vt 0.496608 1.459632
vt 0.461660 1.502110
vt 0.473258 1.494002
vt 0.484154 1.485189
vt 0.494025 1.505144
vt 0.503227 1.466215
vt 0.494025 1.475764
vt 0.542159 1.270708
vt 0.542482 1.307683
vt 0.542159 1.337731
vt 0.539005 1.307342
vt 0.543352 1.344337
vt 0.535761 1.368093
vt 0.535935 1.337730
vt 0.544792 1.379768
vt 0.537089 1.397469
vt 0.546771 1.413103
vt 0.539004 1.424949
vt 0.527321 1.367002
vt 0.530514 1.343094
vt 0.542159 1.391202
vt 0.528851 1.414597
vt 0.527250 1.391202
vt 0.530923 1.436377
vt 0.515449 1.394932
vt 0.516445 1.377061
vt 0.516900 1.413238
vt 0.542159 1.430822
vt 0.522155 1.447167
vt 0.519495 1.430822
vt 0.500007 1.420893
vt 0.497169 1.408346
vt 0.504158 1.433667
vt 0.508721 1.445837
vt 0.542159 1.457006
vt 0.512758 1.457006
vt 0.064287 1.516416
vt 0.068908 1.505581
vt 0.064773 1.516903
vt 0.071711 1.490695
vt 0.074100 1.472013
vt 0.076303 1.449796
vt 0.076646 1.512414
vt 0.075560 1.505144
vt 0.081847 1.488935
vt 0.080079 1.501618
vt 0.083218 1.473777
vt 0.084678 1.456143
vt 0.091486 1.509222
vt 0.092735 1.499176
vt 0.075560 1.505144
vt 0.092823 1.475864
vt 0.092811 1.488182
vt 0.093459 1.462133
vt 0.109647 1.506664
vt 0.107537 1.497540
vt 0.105018 1.487919
vt 0.075560 1.505144
vt 0.102371 1.467277
vt 0.102977 1.477747
vt 0.130938 1.504161
vt 0.124645 1.495911
vt 0.118561 1.487157
vt 0.113393 1.478254
vt 0.087011 1.493691
vt 0.078714 1.307342
vt 0.075560 1.337831
vt 0.087204 1.343094
vt 0.088776 1.367429
vt 0.080689 1.337831
vt 0.101274 1.377061
vt 0.100715 1.395550
vt 0.120551 1.408346
vt 0.116722 1.421300
vt 0.144224 1.436480
vt 0.136316 1.444203
vt 0.081209 1.367883
vt 0.075560 1.391301
vt 0.099806 1.413556
vt 0.089384 1.391301
vt 0.112938 1.433869
vt 0.128570 1.451992
vt 0.080304 1.397024
vt 0.088483 1.414408
vt 0.075560 1.430852
vt 0.108816 1.445889
vt 0.097912 1.430852
vt 0.121071 1.459591
vt 0.078595 1.424644
vt 0.086700 1.436242
vt 0.095514 1.447139
vt 0.075560 1.457008
vt 0.114488 1.466211
vt 0.104939 1.457008
vt 0.242973 1.505144
vt 0.273362 1.501990
vt 0.212611 1.498746
vt 0.242973 1.498919
vt 0.183236 1.500072
vt 0.155755 1.501988
vt 0.213703 1.490306
vt 0.237609 1.493500
vt 0.189502 1.505144
vt 0.166107 1.491837
vt 0.189502 1.490234
vt 0.144326 1.493908
vt 0.185772 1.478433
vt 0.203642 1.479429
vt 0.167466 1.479883
vt 0.149881 1.505144
vt 0.133535 1.485138
vt 0.149881 1.482478
vt 0.159810 1.462991
vt 0.172358 1.460153
vt 0.147038 1.467142
vt 0.134866 1.471704
vt 0.123696 1.505144
vt 0.123696 1.475741
vt 0.542159 1.272979
vt 0.539005 1.236345
vt 0.542159 1.205855
vt 0.542482 1.236006
vt 0.530514 1.200593
vt 0.528943 1.176260
vt 0.537029 1.205855
vt 0.516445 1.166627
vt 0.517004 1.148138
vt 0.497168 1.135342
vt 0.500998 1.122387
vt 0.473495 1.107209
vt 0.481402 1.099484
vt 0.536509 1.175804
vt 0.543352 1.199351
vt 0.542159 1.152387
vt 0.517913 1.130132
vt 0.528334 1.152387
vt 0.504781 1.109819
vt 0.489149 1.091696
vt 0.537415 1.146665
vt 0.544792 1.163920
vt 0.529236 1.129281
vt 0.542159 1.112837
vt 0.508903 1.097800
vt 0.519807 1.112837
vt 0.496649 1.084095
vt 0.539124 1.119043
vt 0.546771 1.130586
vt 0.531019 1.107446
vt 0.522205 1.096549
vt 0.542159 1.086679
vt 0.503231 1.077477
vt 0.512780 1.086679
vt 0.541415 1.093893
vt 0.549183 1.100164
vt 0.533041 1.087544
vt 0.524260 1.081554
vt 0.515348 1.076412
vt 0.530708 1.049995
vt 0.374747 1.038544
vt 0.344357 1.041698
vt 0.405108 1.044943
vt 0.374747 1.044768
vt 0.434483 1.043615
vt 0.461964 1.041699
vt 0.486781 1.039527
vt 0.404016 1.053383
vt 0.380109 1.050189
vt 0.428217 1.038544
vt 0.451612 1.051852
vt 0.428217 1.053453
vt 0.473393 1.049780
vt 0.493074 1.047776
vt 0.431947 1.065254
vt 0.414076 1.064259
vt 0.450253 1.063805
vt 0.467838 1.038544
vt 0.484184 1.058549
vt 0.467838 1.061209
vt 0.499158 1.056531
vt 0.457909 1.080698
vt 0.445361 1.083536
vt 0.470682 1.076546
vt 0.482853 1.071983
vt 0.494023 1.038544
vt 0.504326 1.065434
vt 0.494023 1.067946
vt 0.562488 1.021223
vt 0.553432 1.027271
vt 0.558771 1.033433
vt 0.548811 1.038106
vt 0.552945 1.026785
vt 0.555288 1.050984
vt 0.546008 1.052993
vt 0.552085 1.073414
vt 0.543618 1.071676
vt 0.541073 1.031275
vt 0.542159 1.038544
vt 0.535873 1.054753
vt 0.537640 1.042069
vt 0.534500 1.069911
vt 0.526233 1.034464
vt 0.524983 1.044512
vt 0.542159 1.038544
vt 0.524896 1.067824
vt 0.524908 1.055506
vt 0.508072 1.037023
vt 0.510182 1.046149
vt 0.512701 1.055769
vt 0.542159 1.038544
vt 0.514742 1.065940
vt 0.064287 1.027271
vt 0.075122 1.031893
vt 0.063800 1.027758
vt 0.090008 1.034695
vt 0.108691 1.037085
vt 0.130908 1.039289
vt 0.068290 1.039631
vt 0.075560 1.038544
vt 0.091768 1.044831
vt 0.079084 1.043063
vt 0.106927 1.046203
vt 0.124560 1.047662
vt 0.071480 1.054471
vt 0.081527 1.055720
vt 0.075560 1.038544
vt 0.104839 1.055807
vt 0.092521 1.055796
vt 0.118570 1.056444
vt 0.074038 1.072631
vt 0.083164 1.070521
vt 0.092784 1.068003
vt 0.075560 1.038544
vt 0.113427 1.065355
vt 0.102956 1.065961
vt 0.076542 1.093923
vt 0.084791 1.087630
vt 0.093547 1.081545
vt 0.102449 1.076377
vt 0.087011 1.049995
vt 0.273362 1.041698
vt 0.242872 1.038544
vt 0.237609 1.050189
vt 0.213274 1.051761
vt 0.242872 1.043674
vt 0.203642 1.064259
vt 0.185153 1.063699
vt 0.172358 1.083536
vt 0.159402 1.079706
vt 0.144224 1.107209
vt 0.136499 1.099301
vt 0.212820 1.044195
vt 0.189401 1.038544
vt 0.167147 1.062790
vt 0.189401 1.052369
vt 0.146835 1.075922
vt 0.128712 1.091556
vt 0.183680 1.043289
vt 0.166297 1.051468
vt 0.149853 1.038544
vt 0.134816 1.071801
vt 0.149853 1.060896
vt 0.121111 1.084055
vt 0.156059 1.041579
vt 0.144460 1.049684
vt 0.133565 1.058498
vt 0.123694 1.038544
vt 0.114492 1.077472
vt 0.123694 1.067924
vt 0.075560 1.205957
vt 0.078714 1.236345
vt 0.081958 1.175595
vt 0.081783 1.205957
vt 0.080631 1.146220
vt 0.078714 1.118741
vt 0.090398 1.176687
vt 0.087204 1.200593
vt 0.075560 1.152486
vt 0.088868 1.129092
vt 0.090469 1.152486
vt 0.086795 1.107310
vt 0.102270 1.148757
vt 0.101274 1.166625
vt 0.100819 1.130450
vt 0.075560 1.112865
vt 0.095564 1.096520
vt 0.098224 1.112865
vt 0.117712 1.122794
vt 0.120551 1.135342
vt 0.113561 1.110022
vt 0.108998 1.097851
vt 0.075560 1.086680
vt 0.104961 1.086680
vt 0.539005 0.207222
vt 0.542159 0.176731
vt 0.530514 0.171468
vt 0.528943 0.147133
vt 0.537029 0.176731
vt 0.516445 0.137502
vt 0.517004 0.119012
vt 0.497168 0.106217
vt 0.500998 0.093262
vt 0.473495 0.078084
vt 0.481402 0.070358
vt 0.536509 0.146679
vt 0.542159 0.123260
vt 0.517913 0.101006
vt 0.528334 0.123260
vt 0.504781 0.080694
vt 0.489149 0.062572
vt 0.537415 0.117539
vt 0.529236 0.100156
vt 0.542159 0.083712
vt 0.508903 0.068675
vt 0.519807 0.083712
vt 0.496649 0.054970
vt 0.539124 0.089918
vt 0.531019 0.078321
vt 0.522205 0.067425
vt 0.542159 0.057553
vt 0.503231 0.048352
vt 0.512780 0.057553
vt 0.541415 0.064768
vt 0.533041 0.058420
vt 0.524260 0.052430
vt 0.515348 0.047287
vt 0.530708 0.020870
vt 0.374747 0.009419
vt 0.344357 0.012573
vt 0.405108 0.015818
vt 0.374747 0.015642
vt 0.434483 0.014490
vt 0.461964 0.012575
vt 0.486781 0.010402
vt 0.404016 0.024258
vt 0.380109 0.021063
vt 0.428217 0.009418
vt 0.451612 0.022727
vt 0.428217 0.024329
vt 0.473393 0.020656
vt 0.493074 0.018651
vt 0.431947 0.036129
vt 0.414076 0.035133
vt 0.450253 0.034678
vt 0.467838 0.009419
vt 0.484184 0.029425
vt 0.467838 0.032084
vt 0.499158 0.027407
vt 0.457909 0.051572
vt 0.445361 0.054410
vt 0.470682 0.047421
vt 0.482853 0.042858
vt 0.494023 0.009419
vt 0.504326 0.036309
vt 0.494023 0.038821
vt 0.553432 -0.001854
vt 0.548811 0.008982
vt 0.552945 -0.002340
vt 0.546008 0.023868
vt 0.543618 0.042551
vt 0.541073 0.002150
vt 0.542159 0.009419
vt 0.535873 0.025629
vt 0.537640 0.012945
vt 0.534500 0.040786
vt 0.526233 0.005339
vt 0.524983 0.015387
vt 0.542159 0.009419
vt 0.524896 0.038700
vt 0.524908 0.026380
vt 0.508072 0.007898
vt 0.510182 0.017024
vt 0.512701 0.026644
vt 0.542159 0.009419
vt 0.514742 0.036816
vt 0.064287 -0.001854
vt 0.075122 0.002767
vt 0.063800 -0.001368
vt 0.090008 0.005570
vt 0.108691 0.007960
vt 0.130908 0.010162
vt 0.068290 0.010505
vt 0.075560 0.009418
vt 0.091768 0.015706
vt 0.079084 0.013938
vt 0.106927 0.017078
vt 0.124560 0.018536
vt 0.071480 0.025344
vt 0.081527 0.026595
vt 0.075560 0.009418
vt 0.104839 0.026682
vt 0.092521 0.026671
vt 0.118570 0.027319
vt 0.074038 0.043507
vt 0.083164 0.041396
vt 0.092784 0.038878
vt 0.075560 0.009418
vt 0.113427 0.036230
vt 0.102956 0.036837
vt 0.076542 0.064798
vt 0.084791 0.058505
vt 0.093547 0.052421
vt 0.102449 0.047252
vt 0.087011 0.020870
vt 0.273362 0.012573
vt 0.242872 0.009418
vt 0.237609 0.021063
vt 0.213274 0.022635
vt 0.242872 0.014549
vt 0.203642 0.035133
vt 0.185153 0.034574
vt 0.172358 0.054410
vt 0.159402 0.050581
vt 0.144224 0.078084
vt 0.136499 0.070175
vt 0.212820 0.015069
vt 0.189401 0.009418
vt 0.167147 0.033666
vt 0.189401 0.023243
vt 0.146835 0.046797
vt 0.128712 0.062429
vt 0.183680 0.014163
vt 0.166297 0.022342
vt 0.149853 0.009418
vt 0.134816 0.042676
vt 0.149853 0.031771
vt 0.121111 0.054930
vt 0.156059 0.012454
vt 0.144460 0.020559
vt 0.133565 0.029374
vt 0.123694 0.009418
vt 0.114492 0.048348
vt 0.123694 0.038798
vt 0.075560 0.176832
vt 0.078714 0.207222
vt 0.081958 0.146471
vt 0.081783 0.176832
vt 0.080631 0.117095
vt 0.078714 0.089614
vt 0.090398 0.147562
vt 0.087204 0.171468
vt 0.075560 0.123362
vt 0.088868 0.099966
vt 0.090469 0.123360
vt 0.086795 0.078185
vt 0.102270 0.119631
vt 0.101274 0.137502
vt 0.100819 0.101326
vt 0.075560 0.083741
vt 0.095564 0.067395
vt 0.098224 0.083741
vt 0.117712 0.093669
vt 0.120551 0.106217
vt 0.113561 0.080896
vt 0.108998 0.068725
vt 0.075560 0.057557
vt 0.104961 0.057557
vt 0.344357 0.472865
vt 0.374848 0.476018
vt 0.380109 0.464373
vt 0.404444 0.462802
vt 0.374848 0.470889
vt 0.414077 0.450304
vt 0.432566 0.450864
vt 0.445361 0.431028
vt 0.458317 0.434858
vt 0.473495 0.407354
vt 0.481220 0.415263
vt 0.404899 0.470368
vt 0.428317 0.476018
vt 0.450572 0.451773
vt 0.428317 0.462193
vt 0.470884 0.438641
vt 0.489008 0.423009
vt 0.434038 0.471274
vt 0.451422 0.463095
vt 0.467866 0.476018
vt 0.482904 0.442762
vt 0.467866 0.453667
vt 0.496608 0.430508
vt 0.461660 0.472984
vt 0.473258 0.464879
vt 0.484154 0.456065
vt 0.494025 0.476018
vt 0.503227 0.437090
vt 0.494025 0.446640
vt 0.486810 0.475274
vt 0.493159 0.466900
vt 0.499149 0.458119
vt 0.504292 0.449208
vt 0.530708 0.464568
vt 0.542159 0.308606
vt 0.539005 0.278217
vt 0.535761 0.338968
vt 0.535935 0.308606
vt 0.537089 0.368343
vt 0.539004 0.395822
vt 0.541176 0.420640
vt 0.527321 0.337876
vt 0.530514 0.313969
vt 0.542159 0.362077
vt 0.528851 0.385471
vt 0.527250 0.362077
vt 0.530923 0.407253
vt 0.532927 0.426934
vt 0.515449 0.365807
vt 0.516445 0.347936
vt 0.516900 0.384112
vt 0.542159 0.401696
vt 0.522155 0.418042
vt 0.519495 0.401698
vt 0.524172 0.433017
vt 0.500007 0.391769
vt 0.497169 0.379221
vt 0.504158 0.404542
vt 0.508721 0.416712
vt 0.542159 0.427882
vt 0.515270 0.438186
vt 0.512758 0.427882
vt 0.553432 0.487292
vt 0.542597 0.482670
vt 0.553918 0.486805
vt 0.527711 0.479868
vt 0.509027 0.477478
vt 0.549429 0.474931
vt 0.542159 0.476018
vt 0.525951 0.469733
vt 0.538634 0.471500
vt 0.510793 0.468360
vt 0.546239 0.460092
vt 0.536192 0.458842
vt 0.542159 0.476018
vt 0.512880 0.458756
vt 0.525197 0.458767
vt 0.543680 0.441932
vt 0.534555 0.444042
vt 0.524935 0.446560
vt 0.542159 0.476018
vt 0.514763 0.448601
vt 0.064287 0.487291
vt 0.068908 0.476456
vt 0.064773 0.487778
vt 0.071711 0.461570
vt 0.074100 0.442887
vt 0.076303 0.420669
vt 0.076646 0.483289
vt 0.075560 0.476018
vt 0.081847 0.459810
vt 0.080079 0.472494
vt 0.083218 0.444652
vt 0.084678 0.427018
vt 0.091486 0.480098
vt 0.092735 0.470051
vt 0.075560 0.476018
vt 0.092823 0.446738
vt 0.092811 0.459057
vt 0.093459 0.433008
vt 0.109647 0.477540
vt 0.107537 0.468415
vt 0.105018 0.458794
vt 0.075560 0.476018
vt 0.102371 0.438152
vt 0.102977 0.448622
vt 0.130938 0.475036
vt 0.124645 0.466787
vt 0.118561 0.458032
vt 0.113393 0.449129
vt 0.087011 0.464567
vt 0.078714 0.278217
vt 0.075560 0.308708
vt 0.087204 0.313969
vt 0.088776 0.338303
vt 0.080689 0.308708
vt 0.101274 0.347936
vt 0.100715 0.366424
vt 0.120551 0.379220
vt 0.116722 0.392175
vt 0.144224 0.407354
vt 0.136316 0.415079
vt 0.081209 0.338758
vt 0.075560 0.362176
vt 0.099806 0.384431
vt 0.089384 0.362176
vt 0.112938 0.404744
vt 0.128570 0.422867
vt 0.080304 0.367898
vt 0.088483 0.385281
vt 0.075560 0.401725
vt 0.108816 0.416764
vt 0.097912 0.401725
vt 0.121071 0.430466
vt 0.078595 0.395520
vt 0.086700 0.407117
vt 0.095514 0.418013
vt 0.075560 0.427883
vt 0.114488 0.437086
vt 0.104939 0.427883
vt 0.242973 0.476018
vt 0.273362 0.472865
vt 0.212611 0.469621
vt 0.242973 0.469794
vt 0.183236 0.470948
vt 0.155755 0.472863
vt 0.213703 0.461180
vt 0.237609 0.464373
vt 0.189502 0.476018
vt 0.166107 0.462711
vt 0.189502 0.461110
vt 0.144326 0.464782
vt 0.185772 0.449309
vt 0.203642 0.450304
vt 0.167466 0.450758
vt 0.149881 0.476018
vt 0.133535 0.456013
vt 0.149881 0.453355
vt 0.159810 0.433866
vt 0.172358 0.431028
vt 0.147038 0.438017
vt 0.134866 0.442579
vt 0.123696 0.476018
vt 0.123696 0.446617
vt 1.337984 1.529125
vt 1.337984 1.529125
vt 1.337984 1.529125
vt 1.337984 1.529125
vt 1.337984 1.529125
vt 1.337984 1.529125
vt 1.337984 1.529125
vt 1.337984 1.529125
vt 1.337984 1.529125
vt 1.337984 1.529125
vt 1.337984 1.529125
vt 1.337984 1.529125
vt 1.337984 1.529125
vt 1.337984 1.529125
vt 1.337984 1.529125
vt 1.337984 1.529125
vt 1.337984 1.529125
vt 1.337984 1.529125
vt 1.337984 1.529125
vt 1.337984 1.529125
vt 1.337984 1.529125
vt 1.337984 1.529125
vt 1.337984 1.529125
vt 1.337984 1.529125
vt 1.337984 1.529125
vt 1.337984 1.529125
vt 1.337984 1.529125
vt 1.337984 1.529125
vt 1.337984 1.529125
vt 1.337984 1.529125
vt 1.337984 1.529125
vt 1.337984 1.529125
vt 1.337984 1.529125
vt 1.337984 1.529125
vt 1.337984 1.529125
vt 1.337984 1.529125
vt 1.337984 1.529125
vt 1.337984 1.529125
vt 1.337984 1.529125
vt 1.337984 1.529125
vt 1.337984 1.529125
vt 1.337984 1.529125
vt 1.337984 1.529125
vt 1.337984 1.529125
vt 1.337984 1.529125
vt 1.337984 1.529125
vt 1.337984 1.529125
vt 1.337984 1.529125
vt 1.337984 1.529125
vt 1.337984 1.529125
vt 1.337984 1.529125
vt 1.337984 1.529125
vt 1.337984 1.529125
vt 1.337984 1.529125
vt 1.337984 1.529125
vt 1.337984 1.529125
vt 1.337984 1.529125
vt 1.337984 1.529125
vt 1.337984 1.529125
vt 1.337984 1.529125
vt 1.337984 1.529125
vt 1.337984 1.529125
vt 1.337984 1.529125
vt 1.337984 1.529125
vt 1.337984 1.529125
vt 1.337984 1.529125
vt 1.337984 1.529125
vt 1.337984 1.529125
vt 1.337984 1.529125
vt 1.337984 1.529125
vt 1.337984 1.529125
vt 1.337984 1.529125
vt 1.337984 1.529125
vt 1.337984 1.529125
vt 1.337984 1.529125
vt 1.337984 1.529125
vt 1.337984 1.529125
vt 1.337984 1.529125
vt 1.337984 1.529125
vt 1.337984 1.529125
vt 1.337984 1.529125
vt 1.337984 1.529125
vt 1.337984 1.529125
vt 1.337984 1.529125
vt 1.337984 1.529125
vn -1.0000 0.0000 0.0000
vn 0.0000 0.0000 -1.0000
vn 1.0000 0.0000 0.0000
vn 0.0000 0.0000 1.0000
vn 0.0000 -1.0000 0.0000
vn 0.0000 1.0000 0.0000
vn 0.0000 -0.0858 -0.9963
vn 0.0000 -0.3827 -0.9239
vn 0.0000 0.0858 -0.9963
vn -0.0000 -0.0858 0.9963
vn 0.0000 0.3827 -0.9239
vn 0.0000 0.2311 -0.9729
vn 0.0000 0.9729 -0.2311
vn 0.0000 -0.2311 -0.9729
vn 0.0000 -0.2311 0.9729
vn -0.0000 0.7652 -0.6438
vn -0.0000 -0.9729 -0.2311
vn -0.0000 0.5246 -0.8514
vn -0.0000 -0.5246 -0.8514
vn 0.0000 -0.7652 -0.6438
vn 0.0000 0.9239 -0.3827
vn 0.0000 -0.5246 0.8514
vn 0.0000 0.9963 0.0858
vn 0.0000 0.9958 -0.0914
vn -0.0000 0.9729 0.2311
vn 0.0000 -0.6438 -0.7652
vn 0.0000 -0.8514 -0.5246
vn 0.0000 0.6438 -0.7652
vn 0.0000 0.8514 -0.5246
vn -0.0000 -0.6438 0.7652
vn -0.0000 -0.9239 -0.3827
vn 0.0000 0.9958 0.0914
vn 0.0000 0.8514 0.5246
vn -0.0000 0.9239 0.3827
vn 0.0000 -0.9958 -0.0914
vn -0.0000 0.5246 0.8514
vn 0.0000 -0.7652 0.6438
vn 0.0000 0.3827 0.9239
vn 0.0000 -0.9963 0.0858
vn 0.0000 0.6438 0.7652
vn -0.0000 -0.3827 0.9239
vn -0.0000 0.7652 0.6438
vn 0.0000 -0.9729 0.2311
vn -0.0000 -0.9239 0.3827
vn 0.0000 0.2311 0.9729
vn 0.0000 -0.8514 0.5246
vn 0.0000 0.0858 0.9963
usemtl concrete
s off
f 100/1/1 108/2/1 114/3/1 120/4/1 126/5/1 166/6/1 165/7/1 164/8/1 163/9/1 162/10/1 102/11/1 10/12/1 47/13/1 53/14/1 59/15/1 65/16/1 16/17/1 15/18/1 14/19/1 13/20/1 12/21/1 9/22/1 2/23/1 3/24/1
f 1/25/2 4/26/2 5/27/2 6/28/2
f 375/29/3 440/30/3 446/31/3 452/32/3 458/33/3 410/34/3 409/35/3 408/36/3 407/37/3 406/38/3 374/39/3 465/40/3 502/41/3 508/42/3 514/43/3 520/44/3 471/45/3 470/46/3 469/47/3 468/48/3 467/49/3 464/50/3 8/51/3 7/52/3
f 7/52/4 8/51/4 3/53/4 2/54/4
f 1/55/5 6/28/5 7/52/5 2/56/5
f 5/27/6 4/57/6 3/58/6 8/51/6
f 648/59/2 283/60/2 192/61/2 555/62/2
f 282/63/1 290/64/1 296/65/1 302/66/1 308/67/1 348/68/1 347/69/1 346/70/1 345/71/1 344/72/1 284/73/1 101/74/1 138/75/1 144/76/1 150/77/1 156/78/1 107/79/1 106/80/1 105/81/1 104/82/1 103/83/1 100/1/1 3/24/1 4/26/1
f 193/84/1 258/85/1 264/86/1 270/87/1 276/88/1 228/89/1 227/90/1 226/91/1 225/92/1 224/93/1 192/61/1 283/60/1 320/94/1 326/95/1 332/96/1 338/97/1 289/98/1 288/99/1 287/100/1 286/101/1 285/102/1 282/63/1 4/26/1 1/25/1
f 557/103/3 622/104/3 628/105/3 634/106/3 640/107/3 592/108/3 591/109/3 590/110/3 589/111/3 588/112/3 556/113/3 373/114/3 381/115/3 387/116/3 393/117/3 399/118/3 439/119/3 438/120/3 437/121/3 436/122/3 435/123/3 375/29/3 7/52/3 6/28/3
f 167/124/7 465/125/7 102/126/7
f 374/39/4 10/12/4 102/11/4 465/40/4
f 646/127/3 654/128/3 660/129/3 666/130/3 672/131/3 712/132/3 711/133/3 710/134/3 709/135/3 708/136/3 648/59/3 555/62/3 563/137/3 569/138/3 575/139/3 581/140/3 621/141/3 620/142/3 619/143/3 618/144/3 617/145/3 557/103/3 6/28/3 5/27/3
f 464/50/3 472/146/3 478/147/3 484/148/3 490/149/3 530/150/3 529/151/3 528/152/3 527/153/3 526/154/3 466/155/3 647/156/3 684/157/3 690/158/3 696/159/3 702/160/3 653/161/3 652/162/3 651/163/3 650/164/3 649/165/3 646/127/3 5/27/3 8/51/3
f 9/22/1 12/21/1 18/166/1 17/167/1
f 12/21/1 13/20/1 19/168/1 18/169/1
f 13/20/1 14/19/1 20/170/1 19/168/1
f 14/19/1 15/18/1 21/171/1 20/170/1
f 15/18/1 16/17/1 22/172/1 21/171/1
f 17/167/1 18/169/1 24/173/1 23/174/1
f 18/166/1 19/168/1 25/175/1 24/173/1
f 19/168/1 20/170/1 26/176/1 25/177/1
f 20/170/1 21/171/1 27/178/1 26/176/1
f 21/171/1 22/172/1 28/179/1 27/178/1
f 23/174/1 24/173/1 30/180/1 29/181/1
f 24/173/1 25/177/1 31/182/1 30/180/1
f 25/175/1 26/176/1 32/183/1 31/182/1
f 26/176/1 27/178/1 33/184/1 32/185/1
f 27/178/1 28/179/1 34/186/1 33/184/1
f 29/181/1 30/180/1 36/187/1 35/188/1
f 30/180/1 31/182/1 37/189/1 36/187/1
f 31/182/1 32/185/1 38/190/1 37/189/1
f 32/183/1 33/184/1 39/191/1 38/190/1
f 33/184/1 34/186/1 40/192/1 39/193/1
f 35/188/1 36/187/1 81/194/1 75/195/1
f 36/187/1 37/189/1 87/196/1 81/194/1
f 37/189/1 38/190/1 93/197/1 87/196/1
f 38/190/1 39/193/1 99/198/1 93/197/1
f 39/191/1 40/192/1 41/199/1 99/198/1
f 10/12/1 42/200/1 48/201/1 47/13/1
f 42/200/1 43/202/1 49/203/1 48/204/1
f 43/202/1 44/205/1 50/206/1 49/203/1
f 44/205/1 45/207/1 51/208/1 50/206/1
f 45/207/1 46/209/1 52/210/1 51/208/1
f 47/13/1 48/204/1 54/211/1 53/14/1
f 48/201/1 49/203/1 55/212/1 54/211/1
f 49/203/1 50/206/1 56/213/1 55/214/1
f 50/206/1 51/208/1 57/215/1 56/213/1
f 51/208/1 52/210/1 58/216/1 57/215/1
f 53/14/1 54/211/1 60/217/1 59/15/1
f 54/211/1 55/214/1 61/218/1 60/217/1
f 55/212/1 56/213/1 62/219/1 61/218/1
f 56/213/1 57/215/1 63/220/1 62/221/1
f 57/215/1 58/216/1 64/222/1 63/220/1
f 59/15/1 60/217/1 66/223/1 65/16/1
f 60/217/1 61/218/1 67/224/1 66/223/1
f 61/218/1 62/221/1 68/225/1 67/224/1
f 62/219/1 63/220/1 69/226/1 68/225/1
f 63/220/1 64/222/1 70/227/1 69/228/1
f 65/16/1 66/223/1 22/172/1 16/17/1
f 66/223/1 67/224/1 28/179/1 22/172/1
f 67/224/1 68/225/1 34/186/1 28/179/1
f 68/225/1 69/228/1 40/192/1 34/186/1
f 69/226/1 70/227/1 41/199/1 40/192/1
f 11/229/1 71/230/1 77/231/1 76/232/1
f 71/230/1 72/233/1 78/234/1 77/235/1
f 72/233/1 73/236/1 79/237/1 78/234/1
f 73/236/1 74/238/1 80/239/1 79/237/1
f 74/238/1 75/195/1 81/194/1 80/239/1
f 76/232/1 77/235/1 83/240/1 82/241/1
f 77/231/1 78/234/1 84/242/1 83/240/1
f 78/234/1 79/237/1 85/243/1 84/244/1
f 79/237/1 80/239/1 86/245/1 85/243/1
f 80/239/1 81/194/1 87/196/1 86/245/1
f 82/241/1 83/240/1 89/246/1 88/247/1
f 83/240/1 84/244/1 90/248/1 89/246/1
f 84/242/1 85/243/1 91/249/1 90/248/1
f 85/243/1 86/245/1 92/250/1 91/251/1
f 86/245/1 87/196/1 93/197/1 92/250/1
f 88/247/1 89/246/1 95/252/1 94/253/1
f 89/246/1 90/248/1 96/254/1 95/252/1
f 90/248/1 91/251/1 97/255/1 96/254/1
f 91/249/1 92/250/1 98/256/1 97/255/1
f 92/250/1 93/197/1 99/198/1 98/257/1
f 94/253/1 95/252/1 52/210/1 46/209/1
f 95/252/1 96/254/1 58/216/1 52/210/1
f 96/254/1 97/255/1 64/222/1 58/216/1
f 97/255/1 98/257/1 70/227/1 64/222/1
f 98/256/1 99/198/1 41/199/1 70/227/1
f 100/1/1 103/83/1 109/258/1 108/2/1
f 103/83/1 104/82/1 110/259/1 109/260/1
f 104/82/1 105/81/1 111/261/1 110/259/1
f 105/81/1 106/80/1 112/262/1 111/261/1
f 106/80/1 107/79/1 113/263/1 112/262/1
f 108/2/1 109/260/1 115/264/1 114/3/1
f 109/258/1 110/259/1 116/265/1 115/264/1
f 110/259/1 111/261/1 117/266/1 116/267/1
f 111/261/1 112/262/1 118/268/1 117/266/1
f 112/262/1 113/263/1 119/269/1 118/268/1
f 114/3/1 115/264/1 121/270/1 120/4/1
f 115/264/1 116/267/1 122/271/1 121/270/1
f 116/265/1 117/266/1 123/272/1 122/271/1
f 117/266/1 118/268/1 124/273/1 123/274/1
f 118/268/1 119/269/1 125/275/1 124/273/1
f 120/4/1 121/270/1 127/276/1 126/5/1
f 121/270/1 122/271/1 128/277/1 127/276/1
f 122/271/1 123/274/1 129/278/1 128/277/1
f 123/272/1 124/273/1 130/279/1 129/278/1
f 124/273/1 125/275/1 131/280/1 130/281/1
f 126/5/1 127/276/1 172/282/1 166/6/1
f 127/276/1 128/277/1 178/283/1 172/282/1
f 128/277/1 129/278/1 184/284/1 178/283/1
f 129/278/1 130/281/1 190/285/1 184/284/1
f 130/279/1 131/280/1 132/286/1 190/285/1
f 101/74/1 133/287/1 139/288/1 138/75/1
f 133/287/1 134/289/1 140/290/1 139/291/1
f 134/289/1 135/292/1 141/293/1 140/290/1
f 135/292/1 136/294/1 142/295/1 141/293/1
f 136/294/1 137/296/1 143/297/1 142/295/1
f 138/75/1 139/291/1 145/298/1 144/76/1
f 139/288/1 140/290/1 146/299/1 145/298/1
f 140/290/1 141/293/1 147/300/1 146/301/1
f 141/293/1 142/295/1 148/302/1 147/300/1
f 142/295/1 143/297/1 149/303/1 148/302/1
f 144/76/1 145/298/1 151/304/1 150/77/1
f 145/298/1 146/301/1 152/305/1 151/304/1
f 146/299/1 147/300/1 153/306/1 152/305/1
f 147/300/1 148/302/1 154/307/1 153/308/1
f 148/302/1 149/303/1 155/309/1 154/307/1
f 150/77/1 151/304/1 157/310/1 156/78/1
f 151/304/1 152/305/1 158/311/1 157/310/1
f 152/305/1 153/308/1 159/312/1 158/311/1
f 153/306/1 154/307/1 160/313/1 159/312/1
f 154/307/1 155/309/1 161/314/1 160/315/1
f 156/78/1 157/310/1 113/263/1 107/79/1
f 157/310/1 158/311/1 119/269/1 113/263/1
f 158/311/1 159/312/1 125/275/1 119/269/1
f 159/312/1 160/315/1 131/280/1 125/275/1
f 160/313/1 161/314/1 132/286/1 131/280/1
f 102/11/1 162/10/1 168/316/1 167/317/1
f 162/10/1 163/9/1 169/318/1 168/319/1
f 163/9/1 164/8/1 170/320/1 169/318/1
f 164/8/1 165/7/1 171/321/1 170/320/1
f 165/7/1 166/6/1 172/282/1 171/321/1
f 167/317/1 168/319/1 174/322/1 173/323/1
f 168/316/1 169/318/1 175/324/1 174/322/1
f 169/318/1 170/320/1 176/325/1 175/326/1
f 170/320/1 171/321/1 177/327/1 176/325/1
f 171/321/1 172/282/1 178/283/1 177/327/1
f 173/323/1 174/322/1 180/328/1 179/329/1
f 174/322/1 175/326/1 181/330/1 180/328/1
f 175/324/1 176/325/1 182/331/1 181/330/1
f 176/325/1 177/327/1 183/332/1 182/333/1
f 177/327/1 178/283/1 184/284/1 183/332/1
f 179/329/1 180/328/1 186/334/1 185/335/1
f 180/328/1 181/330/1 187/336/1 186/334/1
f 181/330/1 182/333/1 188/337/1 187/336/1
f 182/331/1 183/332/1 189/338/1 188/337/1
f 183/332/1 184/284/1 190/285/1 189/339/1
f 185/335/1 186/334/1 143/297/1 137/296/1
f 186/334/1 187/336/1 149/303/1 143/297/1
f 187/336/1 188/337/1 155/309/1 149/303/1
f 188/337/1 189/339/1 161/314/1 155/309/1
f 189/338/1 190/285/1 132/286/1 161/314/1
f 191/340/1 194/341/1 200/342/1 199/343/1
f 194/341/1 195/344/1 201/345/1 200/346/1
f 195/344/1 196/347/1 202/348/1 201/345/1
f 196/347/1 197/349/1 203/350/1 202/348/1
f 197/349/1 198/351/1 204/352/1 203/350/1
f 199/343/1 200/346/1 206/353/1 205/354/1
f 200/342/1 201/345/1 207/355/1 206/353/1
f 201/345/1 202/348/1 208/356/1 207/357/1
f 202/348/1 203/350/1 209/358/1 208/356/1
f 203/350/1 204/352/1 210/359/1 209/358/1
f 205/354/1 206/353/1 212/360/1 211/361/1
f 206/353/1 207/357/1 213/362/1 212/360/1
f 207/355/1 208/356/1 214/363/1 213/362/1
f 208/356/1 209/358/1 215/364/1 214/365/1
f 209/358/1 210/359/1 216/366/1 215/364/1
f 211/361/1 212/360/1 218/367/1 217/368/1
f 212/360/1 213/362/1 219/369/1 218/367/1
f 213/362/1 214/365/1 220/370/1 219/369/1
f 214/363/1 215/364/1 221/371/1 220/370/1
f 215/364/1 216/366/1 222/372/1 221/373/1
f 217/368/1 218/367/1 263/374/1 257/375/1
f 218/367/1 219/369/1 269/376/1 263/374/1
f 219/369/1 220/370/1 275/377/1 269/376/1
f 220/370/1 221/373/1 281/378/1 275/377/1
f 221/371/1 222/372/1 223/379/1 281/378/1
f 192/61/1 224/93/1 230/380/1 229/381/1
f 224/93/1 225/92/1 231/382/1 230/383/1
f 225/92/1 226/91/1 232/384/1 231/382/1
f 226/91/1 227/90/1 233/385/1 232/384/1
f 227/90/1 228/89/1 234/386/1 233/385/1
f 229/381/1 230/383/1 236/387/1 235/388/1
f 230/380/1 231/382/1 237/389/1 236/387/1
f 231/382/1 232/384/1 238/390/1 237/391/1
f 232/384/1 233/385/1 239/392/1 238/390/1
f 233/385/1 234/386/1 240/393/1 239/392/1
f 235/388/1 236/387/1 242/394/1 241/395/1
f 236/387/1 237/391/1 243/396/1 242/394/1
f 237/389/1 238/390/1 244/397/1 243/396/1
f 238/390/1 239/392/1 245/398/1 244/399/1
f 239/392/1 240/393/1 246/400/1 245/398/1
f 241/395/1 242/394/1 248/401/1 247/402/1
f 242/394/1 243/396/1 249/403/1 248/401/1
f 243/396/1 244/399/1 250/404/1 249/403/1
f 244/397/1 245/398/1 251/405/1 250/404/1
f 245/398/1 246/400/1 252/406/1 251/407/1
f 247/402/1 248/401/1 204/352/1 198/351/1
f 248/401/1 249/403/1 210/359/1 204/352/1
f 249/403/1 250/404/1 216/366/1 210/359/1
f 250/404/1 251/407/1 222/372/1 216/366/1
f 251/405/1 252/406/1 223/379/1 222/372/1
f 193/84/1 253/408/1 259/409/1 258/85/1
f 253/408/1 254/410/1 260/411/1 259/412/1
f 254/410/1 255/413/1 261/414/1 260/411/1
f 255/413/1 256/415/1 262/416/1 261/414/1
f 256/415/1 257/375/1 263/374/1 262/416/1
f 258/85/1 259/412/1 265/417/1 264/86/1
f 259/409/1 260/411/1 266/418/1 265/417/1
f 260/411/1 261/414/1 267/419/1 266/420/1
f 261/414/1 262/416/1 268/421/1 267/419/1
f 262/416/1 263/374/1 269/376/1 268/421/1
f 264/86/1 265/417/1 271/422/1 270/87/1
f 265/417/1 266/420/1 272/423/1 271/422/1
f 266/418/1 267/419/1 273/424/1 272/423/1
f 267/419/1 268/421/1 274/425/1 273/426/1
f 268/421/1 269/376/1 275/377/1 274/425/1
f 270/87/1 271/422/1 277/427/1 276/88/1
f 271/422/1 272/423/1 278/428/1 277/427/1
f 272/423/1 273/426/1 279/429/1 278/428/1
f 273/424/1 274/425/1 280/430/1 279/429/1
f 274/425/1 275/377/1 281/378/1 280/431/1
f 276/88/1 277/427/1 234/386/1 228/89/1
f 277/427/1 278/428/1 240/393/1 234/386/1
f 278/428/1 279/429/1 246/400/1 240/393/1
f 279/429/1 280/431/1 252/406/1 246/400/1
f 280/430/1 281/378/1 223/379/1 252/406/1
f 282/63/1 285/102/1 291/432/1 290/64/1
f 285/102/1 286/101/1 292/433/1 291/434/1
f 286/101/1 287/100/1 293/435/1 292/433/1
f 287/100/1 288/99/1 294/436/1 293/435/1
f 288/99/1 289/98/1 295/437/1 294/436/1
f 290/64/1 291/434/1 297/438/1 296/65/1
f 291/432/1 292/433/1 298/439/1 297/438/1
f 292/433/1 293/435/1 299/440/1 298/441/1
f 293/435/1 294/436/1 300/442/1 299/440/1
f 294/436/1 295/437/1 301/443/1 300/442/1
f 296/65/1 297/438/1 303/444/1 302/66/1
f 297/438/1 298/441/1 304/445/1 303/444/1
f 298/439/1 299/440/1 305/446/1 304/445/1
f 299/440/1 300/442/1 306/447/1 305/448/1
f 300/442/1 301/443/1 307/449/1 306/447/1
f 302/66/1 303/444/1 309/450/1 308/67/1
f 303/444/1 304/445/1 310/451/1 309/450/1
f 304/445/1 305/448/1 311/452/1 310/451/1
f 305/446/1 306/447/1 312/453/1 311/452/1
f 306/447/1 307/449/1 313/454/1 312/455/1
f 308/67/1 309/450/1 354/456/1 348/68/1
f 309/450/1 310/451/1 360/457/1 354/456/1
f 310/451/1 311/452/1 366/458/1 360/457/1
f 311/452/1 312/455/1 372/459/1 366/458/1
f 312/453/1 313/454/1 314/460/1 372/459/1
f 283/60/1 315/461/1 321/462/1 320/94/1
f 315/461/1 316/463/1 322/464/1 321/465/1
f 316/463/1 317/466/1 323/467/1 322/464/1
f 317/466/1 318/468/1 324/469/1 323/467/1
f 318/468/1 319/470/1 325/471/1 324/469/1
f 320/94/1 321/465/1 327/472/1 326/95/1
f 321/462/1 322/464/1 328/473/1 327/472/1
f 322/464/1 323/467/1 329/474/1 328/475/1
f 323/467/1 324/469/1 330/476/1 329/474/1
f 324/469/1 325/471/1 331/477/1 330/476/1
f 326/95/1 327/472/1 333/478/1 332/96/1
f 327/472/1 328/475/1 334/479/1 333/478/1
f 328/473/1 329/474/1 335/480/1 334/479/1
f 329/474/1 330/476/1 336/481/1 335/482/1
f 330/476/1 331/477/1 337/483/1 336/481/1
f 332/96/1 333/478/1 339/484/1 338/97/1
f 333/478/1 334/479/1 340/485/1 339/484/1
f 334/479/1 335/482/1 341/486/1 340/485/1
f 335/480/1 336/481/1 342/487/1 341/486/1
f 336/481/1 337/483/1 343/488/1 342/489/1
f 338/97/1 339/484/1 295/437/1 289/98/1
f 339/484/1 340/485/1 301/443/1 295/437/1
f 340/485/1 341/486/1 307/449/1 301/443/1
f 341/486/1 342/489/1 313/454/1 307/449/1
f 342/487/1 343/488/1 314/460/1 313/454/1
f 284/73/1 344/72/1 350/490/1 349/491/1
f 344/72/1 345/71/1 351/492/1 350/493/1
f 345/71/1 346/70/1 352/494/1 351/492/1
f 346/70/1 347/69/1 353/495/1 352/494/1
f 347/69/1 348/68/1 354/456/1 353/495/1
f 349/491/1 350/493/1 356/496/1 355/497/1
f 350/490/1 351/492/1 357/498/1 356/496/1
f 351/492/1 352/494/1 358/499/1 357/500/1
f 352/494/1 353/495/1 359/501/1 358/499/1
f 353/495/1 354/456/1 360/457/1 359/501/1
f 355/497/1 356/496/1 362/502/1 361/503/1
f 356/496/1 357/500/1 363/504/1 362/502/1
f 357/498/1 358/499/1 364/505/1 363/504/1
f 358/499/1 359/501/1 365/506/1 364/507/1
f 359/501/1 360/457/1 366/458/1 365/506/1
f 361/503/1 362/502/1 368/508/1 367/509/1
f 362/502/1 363/504/1 369/510/1 368/508/1
f 363/504/1 364/507/1 370/511/1 369/510/1
f 364/505/1 365/506/1 371/512/1 370/511/1
f 365/506/1 366/458/1 372/459/1 371/513/1
f 367/509/1 368/508/1 325/471/1 319/470/1
f 368/508/1 369/510/1 331/477/1 325/471/1
f 369/510/1 370/511/1 337/483/1 331/477/1
f 370/511/1 371/513/1 343/488/1 337/483/1
f 371/512/1 372/459/1 314/460/1 343/488/1
f 373/114/3 376/514/3 382/515/3 381/115/3
f 376/514/3 377/516/3 383/517/3 382/518/3
f 377/516/3 378/519/3 384/520/3 383/517/3
f 378/519/3 379/521/3 385/522/3 384/520/3
f 379/521/3 380/523/3 386/524/3 385/522/3
f 381/115/3 382/518/3 388/525/3 387/116/3
f 382/515/3 383/517/3 389/526/3 388/525/3
f 383/517/3 384/520/3 390/527/3 389/528/3
f 384/520/3 385/522/3 391/529/3 390/527/3
f 385/522/3 386/524/3 392/530/3 391/529/3
f 387/116/3 388/525/3 394/531/3 393/117/3
f 388/525/3 389/528/3 395/532/3 394/531/3
f 389/526/3 390/527/3 396/533/3 395/532/3
f 390/527/3 391/529/3 397/534/3 396/535/3
f 391/529/3 392/530/3 398/536/3 397/534/3
f 393/117/3 394/531/3 400/537/3 399/118/3
f 394/531/3 395/532/3 401/538/3 400/537/3
f 395/532/3 396/535/3 402/539/3 401/538/3
f 396/533/3 397/534/3 403/540/3 402/539/3
f 397/534/3 398/536/3 404/541/3 403/542/3
f 399/118/3 400/537/3 445/543/3 439/119/3
f 400/537/3 401/538/3 451/544/3 445/543/3
f 401/538/3 402/539/3 457/545/3 451/544/3
f 402/539/3 403/542/3 463/546/3 457/545/3
f 403/540/3 404/541/3 405/547/3 463/546/3
f 374/39/3 406/38/3 412/548/3 411/549/3
f 406/38/3 407/37/3 413/550/3 412/551/3
f 407/37/3 408/36/3 414/552/3 413/550/3
f 408/36/3 409/35/3 415/553/3 414/552/3
f 409/35/3 410/34/3 416/554/3 415/553/3
f 411/549/3 412/551/3 418/555/3 417/556/3
f 412/548/3 413/550/3 419/557/3 418/555/3
f 413/550/3 414/552/3 420/558/3 419/559/3
f 414/552/3 415/553/3 421/560/3 420/558/3
f 415/553/3 416/554/3 422/561/3 421/560/3
f 417/556/3 418/555/3 424/562/3 423/563/3
f 418/555/3 419/559/3 425/564/3 424/562/3
f 419/557/3 420/558/3 426/565/3 425/564/3
f 420/558/3 421/560/3 427/566/3 426/567/3
f 421/560/3 422/561/3 428/568/3 427/566/3
f 423/563/3 424/562/3 430/569/3 429/570/3
f 424/562/3 425/564/3 431/571/3 430/569/3
f 425/564/3 426/567/3 432/572/3 431/571/3
f 426/565/3 427/566/3 433/573/3 432/572/3
f 427/566/3 428/568/3 434/574/3 433/575/3
f 429/570/3 430/569/3 386/524/3 380/523/3
f 430/569/3 431/571/3 392/530/3 386/524/3
f 431/571/3 432/572/3 398/536/3 392/530/3
f 432/572/3 433/575/3 404/541/3 398/536/3
f 433/573/3 434/574/3 405/547/3 404/541/3
f 375/29/3 435/123/3 441/576/3 440/30/3
f 435/123/3 436/122/3 442/577/3 441/578/3
f 436/122/3 437/121/3 443/579/3 442/577/3
f 437/121/3 438/120/3 444/580/3 443/579/3
f 438/120/3 439/119/3 445/543/3 444/580/3
f 440/30/3 441/578/3 447/581/3 446/31/3
f 441/576/3 442/577/3 448/582/3 447/581/3
f 442/577/3 443/579/3 449/583/3 448/584/3
f 443/579/3 444/580/3 450/585/3 449/583/3
f 444/580/3 445/543/3 451/544/3 450/585/3
f 446/31/3 447/581/3 453/586/3 452/32/3
f 447/581/3 448/584/3 454/587/3 453/586/3
f 448/582/3 449/583/3 455/588/3 454/587/3
f 449/583/3 450/585/3 456/589/3 455/590/3
f 450/585/3 451/544/3 457/545/3 456/589/3
f 452/32/3 453/586/3 459/591/3 458/33/3
f 453/586/3 454/587/3 460/592/3 459/591/3
f 454/587/3 455/590/3 461/593/3 460/592/3
f 455/588/3 456/589/3 462/594/3 461/593/3
f 456/589/3 457/545/3 463/546/3 462/595/3
f 458/33/3 459/591/3 416/554/3 410/34/3
f 459/591/3 460/592/3 422/561/3 416/554/3
f 460/592/3 461/593/3 428/568/3 422/561/3
f 461/593/3 462/595/3 434/574/3 428/568/3
f 462/594/3 463/546/3 405/547/3 434/574/3
f 464/50/3 467/49/3 473/596/3 472/146/3
f 467/49/3 468/48/3 474/597/3 473/598/3
f 468/48/3 469/47/3 475/599/3 474/597/3
f 469/47/3 470/46/3 476/600/3 475/599/3
f 470/46/3 471/45/3 477/601/3 476/600/3
f 472/146/3 473/598/3 479/602/3 478/147/3
f 473/596/3 474/597/3 480/603/3 479/602/3
f 474/597/3 475/599/3 481/604/3 480/605/3
f 475/599/3 476/600/3 482/606/3 481/604/3
f 476/600/3 477/601/3 483/607/3 482/606/3
f 478/147/3 479/602/3 485/608/3 484/148/3
f 479/602/3 480/605/3 486/609/3 485/608/3
f 480/603/3 481/604/3 487/610/3 486/609/3
f 481/604/3 482/606/3 488/611/3 487/612/3
f 482/606/3 483/607/3 489/613/3 488/611/3
f 484/148/3 485/608/3 491/614/3 490/149/3
f 485/608/3 486/609/3 492/615/3 491/614/3
f 486/609/3 487/612/3 493/616/3 492/615/3
f 487/610/3 488/611/3 494/617/3 493/616/3
f 488/611/3 489/613/3 495/618/3 494/619/3
f 490/149/3 491/614/3 536/620/3 530/150/3
f 491/614/3 492/615/3 542/621/3 536/620/3
f 492/615/3 493/616/3 548/622/3 542/621/3
f 493/616/3 494/619/3 554/623/3 548/622/3
f 494/617/3 495/618/3 496/624/3 554/623/3
f 465/40/3 497/625/3 503/626/3 502/41/3
f 497/625/3 498/627/3 504/628/3 503/629/3
f 498/627/3 499/630/3 505/631/3 504/628/3
f 499/630/3 500/632/3 506/633/3 505/631/3
f 500/632/3 501/634/3 507/635/3 506/633/3
f 502/41/3 503/629/3 509/636/3 508/42/3
f 503/626/3 504/628/3 510/637/3 509/636/3
f 504/628/3 505/631/3 511/638/3 510/639/3
f 505/631/3 506/633/3 512/640/3 511/638/3
f 506/633/3 507/635/3 513/641/3 512/640/3
f 508/42/3 509/636/3 515/642/3 514/43/3
f 509/636/3 510/639/3 516/643/3 515/642/3
f 510/637/3 511/638/3 517/644/3 516/643/3
f 511/638/3 512/640/3 518/645/3 517/646/3
f 512/640/3 513/641/3 519/647/3 518/645/3
f 514/43/3 515/642/3 521/648/3 520/44/3
f 515/642/3 516/643/3 522/649/3 521/648/3
f 516/643/3 517/646/3 523/650/3 522/649/3
f 517/644/3 518/645/3 524/651/3 523/650/3
f 518/645/3 519/647/3 525/652/3 524/653/3
f 520/44/3 521/648/3 477/601/3 471/45/3
f 521/648/3 522/649/3 483/607/3 477/601/3
f 522/649/3 523/650/3 489/613/3 483/607/3
f 523/650/3 524/653/3 495/618/3 489/613/3
f 524/651/3 525/652/3 496/624/3 495/618/3
f 466/155/3 526/154/3 532/654/3 531/655/3
f 526/154/3 527/153/3 533/656/3 532/657/3
f 527/153/3 528/152/3 534/658/3 533/656/3
f 528/152/3 529/151/3 535/659/3 534/658/3
f 529/151/3 530/150/3 536/620/3 535/659/3
f 531/655/3 532/657/3 538/660/3 537/661/3
f 532/654/3 533/656/3 539/662/3 538/660/3
f 533/656/3 534/658/3 540/663/3 539/664/3
f 534/658/3 535/659/3 541/665/3 540/663/3
f 535/659/3 536/620/3 542/621/3 541/665/3
f 537/661/3 538/660/3 544/666/3 543/667/3
f 538/660/3 539/664/3 545/668/3 544/666/3
f 539/662/3 540/663/3 546/669/3 545/668/3
f 540/663/3 541/665/3 547/670/3 546/671/3
f 541/665/3 542/621/3 548/622/3 547/670/3
f 543/667/3 544/666/3 550/672/3 549/673/3
f 544/666/3 545/668/3 551/674/3 550/672/3
f 545/668/3 546/671/3 552/675/3 551/674/3
f 546/669/3 547/670/3 553/676/3 552/675/3
f 547/670/3 548/622/3 554/623/3 553/677/3
f 549/673/3 550/672/3 507/635/3 501/634/3
f 550/672/3 551/674/3 513/641/3 507/635/3
f 551/674/3 552/675/3 519/647/3 513/641/3
f 552/675/3 553/677/3 525/652/3 519/647/3
f 553/676/3 554/623/3 496/624/3 525/652/3
f 555/62/3 558/678/3 564/679/3 563/137/3
f 558/678/3 559/680/3 565/681/3 564/682/3
f 559/680/3 560/683/3 566/684/3 565/681/3
f 560/683/3 561/685/3 567/686/3 566/684/3
f 561/685/3 562/687/3 568/688/3 567/686/3
f 563/137/3 564/682/3 570/689/3 569/138/3
f 564/679/3 565/681/3 571/690/3 570/689/3
f 565/681/3 566/684/3 572/691/3 571/692/3
f 566/684/3 567/686/3 573/693/3 572/691/3
f 567/686/3 568/688/3 574/694/3 573/693/3
f 569/138/3 570/689/3 576/695/3 575/139/3
f 570/689/3 571/692/3 577/696/3 576/695/3
f 571/690/3 572/691/3 578/697/3 577/696/3
f 572/691/3 573/693/3 579/698/3 578/699/3
f 573/693/3 574/694/3 580/700/3 579/698/3
f 575/139/3 576/695/3 582/701/3 581/140/3
f 576/695/3 577/696/3 583/702/3 582/701/3
f 577/696/3 578/699/3 584/703/3 583/702/3
f 578/697/3 579/698/3 585/704/3 584/703/3
f 579/698/3 580/700/3 586/705/3 585/706/3
f 581/140/3 582/701/3 627/707/3 621/141/3
f 582/701/3 583/702/3 633/708/3 627/707/3
f 583/702/3 584/703/3 639/709/3 633/708/3
f 584/703/3 585/706/3 645/710/3 639/709/3
f 585/704/3 586/705/3 587/711/3 645/710/3
f 556/113/3 588/112/3 594/712/3 593/713/3
f 588/112/3 589/111/3 595/714/3 594/715/3
f 589/111/3 590/110/3 596/716/3 595/714/3
f 590/110/3 591/109/3 597/717/3 596/716/3
f 591/109/3 592/108/3 598/718/3 597/717/3
f 593/713/3 594/715/3 600/719/3 599/720/3
f 594/712/3 595/714/3 601/721/3 600/719/3
f 595/714/3 596/716/3 602/722/3 601/723/3
f 596/716/3 597/717/3 603/724/3 602/722/3
f 597/717/3 598/718/3 604/725/3 603/724/3
f 599/720/3 600/719/3 606/726/3 605/727/3
f 600/719/3 601/723/3 607/728/3 606/726/3
f 601/721/3 602/722/3 608/729/3 607/728/3
f 602/722/3 603/724/3 609/730/3 608/731/3
f 603/724/3 604/725/3 610/732/3 609/730/3
f 605/727/3 606/726/3 612/733/3 611/734/3
f 606/726/3 607/728/3 613/735/3 612/733/3
f 607/728/3 608/731/3 614/736/3 613/735/3
f 608/729/3 609/730/3 615/737/3 614/736/3
f 609/730/3 610/732/3 616/738/3 615/739/3
f 611/734/3 612/733/3 568/688/3 562/687/3
f 612/733/3 613/735/3 574/694/3 568/688/3
f 613/735/3 614/736/3 580/700/3 574/694/3
f 614/736/3 615/739/3 586/705/3 580/700/3
f 615/737/3 616/738/3 587/711/3 586/705/3
f 557/103/3 617/145/3 623/740/3 622/104/3
f 617/145/3 618/144/3 624/741/3 623/742/3
f 618/144/3 619/143/3 625/743/3 624/741/3
f 619/143/3 620/142/3 626/744/3 625/743/3
f 620/142/3 621/141/3 627/707/3 626/744/3
f 622/104/3 623/742/3 629/745/3 628/105/3
f 623/740/3 624/741/3 630/746/3 629/745/3
f 624/741/3 625/743/3 631/747/3 630/748/3
f 625/743/3 626/744/3 632/749/3 631/747/3
f 626/744/3 627/707/3 633/708/3 632/749/3
f 628/105/3 629/745/3 635/750/3 634/106/3
f 629/745/3 630/748/3 636/751/3 635/750/3
f 630/746/3 631/747/3 637/752/3 636/751/3
f 631/747/3 632/749/3 638/753/3 637/754/3
f 632/749/3 633/708/3 639/709/3 638/753/3
f 634/106/3 635/750/3 641/755/3 640/107/3
f 635/750/3 636/751/3 642/756/3 641/755/3
f 636/751/3 637/754/3 643/757/3 642/756/3
f 637/752/3 638/753/3 644/758/3 643/757/3
f 638/753/3 639/709/3 645/710/3 644/759/3
f 640/107/3 641/755/3 598/718/3 592/108/3
f 641/755/3 642/756/3 604/725/3 598/718/3
f 642/756/3 643/757/3 610/732/3 604/725/3
f 643/757/3 644/759/3 616/738/3 610/732/3
f 644/758/3 645/710/3 587/711/3 616/738/3
f 646/127/3 649/165/3 655/760/3 654/128/3
f 649/165/3 650/164/3 656/761/3 655/762/3
f 650/164/3 651/163/3 657/763/3 656/761/3
f 651/163/3 652/162/3 658/764/3 657/763/3
f 652/162/3 653/161/3 659/765/3 658/764/3
f 654/128/3 655/762/3 661/766/3 660/129/3
f 655/760/3 656/761/3 662/767/3 661/766/3
f 656/761/3 657/763/3 663/768/3 662/769/3
f 657/763/3 658/764/3 664/770/3 663/768/3
f 658/764/3 659/765/3 665/771/3 664/770/3
f 660/129/3 661/766/3 667/772/3 666/130/3
f 661/766/3 662/769/3 668/773/3 667/772/3
f 662/767/3 663/768/3 669/774/3 668/773/3
f 663/768/3 664/770/3 670/775/3 669/776/3
f 664/770/3 665/771/3 671/777/3 670/775/3
f 666/130/3 667/772/3 673/778/3 672/131/3
f 667/772/3 668/773/3 674/779/3 673/778/3
f 668/773/3 669/776/3 675/780/3 674/779/3
f 669/774/3 670/775/3 676/781/3 675/780/3
f 670/775/3 671/777/3 677/782/3 676/783/3
f 672/131/3 673/778/3 718/784/3 712/132/3
f 673/778/3 674/779/3 724/785/3 718/784/3
f 674/779/3 675/780/3 730/786/3 724/785/3
f 675/780/3 676/783/3 736/787/3 730/786/3
f 676/781/3 677/782/3 678/788/3 736/787/3
f 647/156/3 679/789/3 685/790/3 684/157/3
f 679/789/3 680/791/3 686/792/3 685/793/3
f 680/791/3 681/794/3 687/795/3 686/792/3
f 681/794/3 682/796/3 688/797/3 687/795/3
f 682/796/3 683/798/3 689/799/3 688/797/3
f 684/157/3 685/793/3 691/800/3 690/158/3
f 685/790/3 686/792/3 692/801/3 691/800/3
f 686/792/3 687/795/3 693/802/3 692/803/3
f 687/795/3 688/797/3 694/804/3 693/802/3
f 688/797/3 689/799/3 695/805/3 694/804/3
f 690/158/3 691/800/3 697/806/3 696/159/3
f 691/800/3 692/803/3 698/807/3 697/806/3
f 692/801/3 693/802/3 699/808/3 698/807/3
f 693/802/3 694/804/3 700/809/3 699/810/3
f 694/804/3 695/805/3 701/811/3 700/809/3
f 696/159/3 697/806/3 703/812/3 702/160/3
f 697/806/3 698/807/3 704/813/3 703/812/3
f 698/807/3 699/810/3 705/814/3 704/813/3
f 699/808/3 700/809/3 706/815/3 705/814/3
f 700/809/3 701/811/3 707/816/3 706/817/3
f 702/160/3 703/812/3 659/765/3 653/161/3
f 703/812/3 704/813/3 665/771/3 659/765/3
f 704/813/3 705/814/3 671/777/3 665/771/3
f 705/814/3 706/817/3 677/782/3 671/777/3
f 706/815/3 707/816/3 678/788/3 677/782/3
f 648/59/3 708/136/3 714/818/3 713/819/3
f 708/136/3 709/135/3 715/820/3 714/821/3
f 709/135/3 710/134/3 716/822/3 715/820/3
f 710/134/3 711/133/3 717/823/3 716/822/3
f 711/133/3 712/132/3 718/784/3 717/823/3
f 713/819/3 714/821/3 720/824/3 719/825/3
f 714/818/3 715/820/3 721/826/3 720/824/3
f 715/820/3 716/822/3 722/827/3 721/828/3
f 716/822/3 717/823/3 723/829/3 722/827/3
f 717/823/3 718/784/3 724/785/3 723/829/3
f 719/825/3 720/824/3 726/830/3 725/831/3
f 720/824/3 721/828/3 727/832/3 726/830/3
f 721/826/3 722/827/3 728/833/3 727/832/3
f 722/827/3 723/829/3 729/834/3 728/835/3
f 723/829/3 724/785/3 730/786/3 729/834/3
f 725/831/3 726/830/3 732/836/3 731/837/3
f 726/830/3 727/832/3 733/838/3 732/836/3
f 727/832/3 728/835/3 734/839/3 733/838/3
f 728/833/3 729/834/3 735/840/3 734/839/3
f 729/834/3 730/786/3 736/787/3 735/841/3
f 731/837/3 732/836/3 689/799/3 683/798/3
f 732/836/3 733/838/3 695/805/3 689/799/3
f 733/838/3 734/839/3 701/811/3 695/805/3
f 734/839/3 735/841/3 707/816/3 701/811/3
f 735/840/3 736/787/3 678/788/3 707/816/3
f 9/22/1 17/167/1 23/174/1 29/181/1 35/188/1 75/195/1 74/238/1 73/236/1 72/233/1 71/230/1 11/229/1 191/340/1 199/343/1 205/354/1 211/361/1 217/368/1 257/375/1 256/415/1 255/413/1 254/410/1 253/408/1 193/84/1 1/25/1 2/23/1
f 179/842/8 499/843/8 498/844/8
f 648/845/9 283/846/9 315/847/9
f 648/845/10 713/848/10 315/847/10
f 317/849/11 725/850/11 316/851/11
f 713/848/12 315/847/12 719/852/12
f 680/853/13 349/854/13 679/855/13
f 497/856/14 167/124/14 498/844/14
f 315/847/15 719/852/15 316/851/15
f 683/857/16 367/858/16 682/859/16
f 531/860/17 537/861/17 134/862/17
f 167/124/14 173/863/14 498/844/14
f 318/864/18 725/850/18 317/849/18
f 179/842/19 500/865/19 499/843/19
f 137/866/20 549/867/20 501/868/20
f 681/869/21 361/870/21 680/853/21
f 725/850/22 731/871/22 318/864/22
f 133/872/23 466/873/23 101/874/23
f 466/873/24 679/855/24 101/874/24
f 133/872/25 134/862/25 531/860/25
f 549/867/20 137/866/20 136/875/20
f 185/876/26 137/866/26 501/868/26
f 179/842/19 185/876/19 500/865/19
f 361/870/21 355/877/21 680/853/21
f 136/875/27 135/878/27 543/879/27
f 731/871/28 318/864/28 319/880/28
f 725/850/11 719/852/11 316/851/11
f 681/869/29 682/859/29 361/870/29
f 731/871/30 683/857/30 319/880/30
f 683/857/16 319/880/16 367/858/16
f 349/854/13 680/853/13 355/877/13
f 373/881/3 593/882/3 556/883/3
f 349/854/24 101/874/24 679/855/24
f 134/862/31 537/861/31 543/879/31
f 543/879/27 549/867/27 136/875/27
f 466/873/23 133/872/23 531/860/23
f 173/863/8 179/842/8 498/844/8
f 135/878/31 134/862/31 543/879/31
f 185/876/26 501/868/26 500/865/26
f 367/858/29 361/870/29 682/859/29
f 101/874/3 284/884/3 349/854/3
f 466/873/3 647/885/3 679/855/3
f 497/856/7 465/125/7 167/124/7
f 429/886/30 45/887/30 46/888/30
f 11/889/3 194/890/3 191/891/3
f 373/881/32 593/882/32 194/890/32
f 605/892/33 611/893/33 197/894/33
f 599/895/34 605/892/34 195/896/34
f 593/882/17 195/896/17 599/895/17
f 11/889/35 194/890/35 373/881/35
f 593/882/17 194/890/17 195/896/17
f 605/892/34 196/897/34 195/896/34
f 241/898/36 561/899/36 560/900/36
f 380/901/37 46/888/37 94/902/37
f 429/886/28 380/901/28 46/888/28
f 241/898/38 560/900/38 559/903/38
f 11/889/39 376/904/39 76/905/39
f 247/906/40 562/907/40 561/899/40
f 197/894/33 196/897/33 605/892/33
f 423/908/41 417/909/41 43/910/41
f 380/901/37 94/902/37 379/911/37
f 247/906/40 198/912/40 562/907/40
f 611/893/42 198/912/42 197/894/42
f 198/912/42 611/893/42 562/907/42
f 235/913/38 241/898/38 559/903/38
f 376/904/43 377/914/43 76/905/43
f 423/908/18 429/886/18 45/887/18
f 82/915/43 76/905/43 377/914/43
f 88/916/44 82/915/44 377/914/44
f 241/898/36 247/906/36 561/899/36
f 45/887/22 423/908/22 44/917/22
f 229/918/45 235/913/45 559/903/45
f 376/904/39 11/889/39 373/881/39
f 378/919/44 88/916/44 377/914/44
f 42/920/12 417/909/12 43/910/12
f 558/921/45 229/918/45 559/903/45
f 94/902/46 88/916/46 379/911/46
f 411/922/15 42/920/15 417/909/15
f 10/923/9 374/924/9 42/920/9
f 555/925/47 229/918/47 558/921/47
f 378/919/46 379/911/46 88/916/46
f 374/924/9 411/922/9 42/920/9
f 44/917/41 423/908/41 43/910/41
f 555/925/7 229/918/7 192/926/7
