# WroclawTheGame modular facade CC0 mesh
o WTG_Facade_Balcony
v -50 -50 0
v 50 -50 0
v 50 50 0
v -50 50 0
v -50 -50 12
v 50 -50 12
v 50 50 12
v -50 50 12
v -50 41 5
v 50 41 5
v 50 49 5
v -50 49 5
v -50 41 105
v 50 41 105
v 50 49 105
v -50 49 105
v -50 -50 5
v -42 -50 5
v -42 50 5
v -50 50 5
v -50 -50 105
v -42 -50 105
v -42 50 105
v -50 50 105
v 42 -50 5
v 50 -50 5
v 50 50 5
v 42 50 5
v 42 -50 105
v 50 -50 105
v 50 50 105
v 42 50 105
f 1 2 3 4
f 5 8 7 6
f 1 5 6 2
f 2 6 7 3
f 3 7 8 4
f 5 1 4 8
f 9 10 11 12
f 13 16 15 14
f 9 13 14 10
f 10 14 15 11
f 11 15 16 12
f 13 9 12 16
f 17 18 19 20
f 21 24 23 22
f 17 21 22 18
f 18 22 23 19
f 19 23 24 20
f 21 17 20 24
f 25 26 27 28
f 29 32 31 30
f 25 29 30 26
f 26 30 31 27
f 27 31 32 28
f 29 25 28 32
