# WroclawTheGame modular roof CC0 mesh
o WTG_Roof_Dome
v 50 0 0
v 46.194 19.1342 0
v 35.3553 35.3553 0
v 19.1342 46.194 0
v 0 50 0
v -19.1342 46.194 0
v -35.3553 35.3553 0
v -46.194 19.1342 0
v -50 0 0
v -46.194 -19.1342 0
v -35.3553 -35.3553 0
v -19.1342 -46.194 0
v 0 -50 0
v 19.1342 -46.194 0
v 35.3553 -35.3553 0
v 46.194 -19.1342 0
v 47 0 12
v 43.4223 17.9861 12
v 33.234 33.234 12
v 17.9861 43.4223 12
v 0 47 12
v -17.9861 43.4223 12
v -33.234 33.234 12
v -43.4223 17.9861 12
v -47 0 12
v -43.4223 -17.9861 12
v -33.234 -33.234 12
v -17.9861 -43.4223 12
v 0 -47 12
v 17.9861 -43.4223 12
v 33.234 -33.234 12
v 43.4223 -17.9861 12
v 40 0 25
v 36.9552 15.3073 25
v 28.2843 28.2843 25
v 15.3073 36.9552 25
v 0 40 25
v -15.3073 36.9552 25
v -28.2843 28.2843 25
v -36.9552 15.3073 25
v -40 0 25
v -36.9552 -15.3073 25
v -28.2843 -28.2843 25
v -15.3073 -36.9552 25
v 0 -40 25
v 15.3073 -36.9552 25
v 28.2843 -28.2843 25
v 36.9552 -15.3073 25
v 28 0 37
v 25.8686 10.7151 37
v 19.799 19.799 37
v 10.7151 25.8686 37
v 0 28 37
v -10.7151 25.8686 37
v -19.799 19.799 37
v -25.8686 10.7151 37
v -28 0 37
v -25.8686 -10.7151 37
v -19.799 -19.799 37
v -10.7151 -25.8686 37
v 0 -28 37
v 10.7151 -25.8686 37
v 19.799 -19.799 37
v 25.8686 -10.7151 37
v 14 0 47
v 12.9343 5.3576 47
v 9.8995 9.8995 47
v 5.3576 12.9343 47
v 0 14 47
v -5.3576 12.9343 47
v -9.8995 9.8995 47
v -12.9343 5.3576 47
v -14 0 47
v -12.9343 -5.3576 47
v -9.8995 -9.8995 47
v -5.3576 -12.9343 47
v 0 -14 47
v 5.3576 -12.9343 47
v 9.8995 -9.8995 47
v 12.9343 -5.3576 47
v 0 0 50
f 1 2 18 17
f 2 3 19 18
f 3 4 20 19
f 4 5 21 20
f 5 6 22 21
f 6 7 23 22
f 7 8 24 23
f 8 9 25 24
f 9 10 26 25
f 10 11 27 26
f 11 12 28 27
f 12 13 29 28
f 13 14 30 29
f 14 15 31 30
f 15 16 32 31
f 16 1 17 32
f 17 18 34 33
f 18 19 35 34
f 19 20 36 35
f 20 21 37 36
f 21 22 38 37
f 22 23 39 38
f 23 24 40 39
f 24 25 41 40
f 25 26 42 41
f 26 27 43 42
f 27 28 44 43
f 28 29 45 44
f 29 30 46 45
f 30 31 47 46
f 31 32 48 47
f 32 17 33 48
f 33 34 50 49
f 34 35 51 50
f 35 36 52 51
f 36 37 53 52
f 37 38 54 53
f 38 39 55 54
f 39 40 56 55
f 40 41 57 56
f 41 42 58 57
f 42 43 59 58
f 43 44 60 59
f 44 45 61 60
f 45 46 62 61
f 46 47 63 62
f 47 48 64 63
f 48 33 49 64
f 49 50 66 65
f 50 51 67 66
f 51 52 68 67
f 52 53 69 68
f 53 54 70 69
f 54 55 71 70
f 55 56 72 71
f 56 57 73 72
f 57 58 74 73
f 58 59 75 74
f 59 60 76 75
f 60 61 77 76
f 61 62 78 77
f 62 63 79 78
f 63 64 80 79
f 64 49 65 80
f 65 66 81
f 66 67 81
f 67 68 81
f 68 69 81
f 69 70 81
f 70 71 81
f 71 72 81
f 72 73 81
f 73 74 81
f 74 75 81
f 75 76 81
f 76 77 81
f 77 78 81
f 78 79 81
f 79 80 81
f 80 65 81
