# by GGBotNet
mtllib FirstAid.mtl
o FirstAid
v -0.626917 0.000001 -0.187500
v -0.626917 0.921678 -0.187500
v -0.286121 0.921678 -0.187500
v -0.286121 0.000001 -0.187500
v -0.248584 0.874107 -0.187500
v -0.248584 0.000001 -0.187500
v -0.000003 0.874107 -0.187500
v -0.000003 0.000001 -0.187500
v 0.248578 0.874107 -0.187500
v 0.248578 0.000001 -0.187500
v 0.286114 0.921678 -0.187500
v 0.286114 0.000001 -0.187500
v 0.626910 0.921678 -0.187500
v 0.626910 0.000001 -0.187500
v -0.626917 0.000001 0.187500
v -0.286121 0.000001 0.187500
v -0.286121 0.921678 0.187500
v -0.626917 0.921678 0.187500
v -0.248584 0.000001 0.187500
v -0.248584 0.874107 0.187500
v -0.000003 0.000001 0.187500
v -0.000003 0.874107 0.187500
v 0.248578 0.000001 0.187500
v 0.248578 0.874107 0.187500
v 0.286114 0.000001 0.187500
v 0.286114 0.921678 0.187500
v 0.626910 0.000001 0.187500
v 0.626910 0.921678 0.187500
v 0.626910 0.921677 -0.093750
v 0.626910 0.000001 -0.093750
v 0.626911 0.000001 0.093750
v 0.626911 0.921678 0.093750
v 0.286114 0.921677 -0.093750
v -0.000003 0.874107 -0.093750
v 0.248578 0.874107 -0.093750
v -0.248584 0.874107 -0.093750
v -0.286120 0.921677 -0.093750
v -0.626917 0.921677 -0.093750
v 0.286114 1.097453 -0.093750
v 0.580448 1.097453 -0.093750
v 0.248578 1.013669 -0.093750
v 0.248578 1.079053 -0.093750
v -0.286121 1.097453 -0.093750
v -0.248584 1.079053 -0.093750
v -0.248584 1.013669 -0.093750
v -0.580454 1.097453 -0.093750
v 0.286115 1.097453 0.000000
v 0.580448 1.097453 0.000000
v 0.248578 1.079053 0.000000
v -0.000003 1.079053 -0.093750
v -0.000003 1.079053 0.000000
v -0.248584 1.079053 0.000000
v -0.286121 1.097453 0.000000
v -0.580454 1.097453 0.000000
v 0.286115 1.097453 0.093750
v 0.580448 1.097453 0.093750
v 0.248578 1.079053 0.093750
v -0.000003 1.079053 0.093750
v -0.248584 1.079053 0.093750
v -0.286121 1.097453 0.093750
v -0.580454 1.097453 0.093750
v 0.286114 0.921678 0.093750
v 0.248578 1.013669 0.093750
v 0.248578 0.874107 0.093750
v -0.000003 1.013669 0.093750
v -0.248584 1.013669 0.093750
v -0.626917 0.921678 0.093750
v -0.286121 0.921678 0.093750
v -0.000003 0.874107 0.093750
v -0.248584 0.874107 0.093750
v -0.626917 0.000001 -0.093750
v -0.626917 0.000001 0.093750
v -0.000003 1.013669 -0.093750
vn -0.0000 -0.0000 -1.0000
vn -0.0000 -0.0000 1.0000
vn 1.0000 -0.0000 -0.0000
vn 0.9963 0.0858 -0.0000
vn -0.0000 1.0000 -0.0000
vn 0.7850 0.6194 -0.0000
vn 0.7850 0.6195 -0.0000
vn -0.2259 0.9741 -0.0000
vn 0.2259 0.9741 -0.0000
vn -0.7850 0.6194 -0.0000
vn -1.0000 -0.0000 -0.0000
vn -0.9963 0.0858 -0.0000
vn -0.0000 -1.0000 -0.0000
vn 0.9668 0.2556 -0.0000
vn -0.9668 0.2556 -0.0000
vt 0.731008 0.020017
vt 0.731008 0.530843
vt 0.542127 0.530843
vt 0.542127 0.020017
vt 0.521323 0.504478
vt 0.521323 0.020017
vt 0.383550 0.504478
vt 0.383550 0.020017
vt 0.245778 0.504478
vt 0.245778 0.020017
vt 0.224974 0.530843
vt 0.224974 0.020017
vt 0.036093 0.530843
vt 0.036093 0.020017
vt 0.758577 0.017928
vt 0.758577 0.531938
vt 0.810860 0.531938
vt 0.810860 0.017928
vt 0.918719 0.017928
vt 0.918719 0.531938
vt 0.971002 0.531938
vt 0.971002 0.017928
vt 0.224974 0.628264
vt 0.061844 0.628264
vt 0.245778 0.581828
vt 0.245778 0.618066
vt 0.542127 0.628264
vt 0.521323 0.618066
vt 0.521323 0.581828
vt 0.705257 0.628264
vt 0.711956 0.940613
vt 0.540065 0.940613
vt 0.540065 0.885863
vt 0.711956 0.885863
vt 0.518144 0.940613
vt 0.518144 0.885863
vt 0.372973 0.940613
vt 0.372973 0.885863
vt 0.227802 0.940613
vt 0.227801 0.885863
vt 0.205880 0.940613
vt 0.205880 0.885863
vt 0.033990 0.940613
vt 0.033990 0.885863
vt 0.540065 0.831113
vt 0.711956 0.831113
vt 0.518144 0.831113
vt 0.372973 0.831113
vt 0.227801 0.831113
vt 0.205880 0.831113
vt 0.033990 0.831113
vt 0.383550 0.618066
vt 0.383550 0.581828
vt 0.814152 0.531938
vt 0.814152 0.017928
vt 0.761868 0.017928
vt 0.761868 0.531938
vt 0.857343 0.666410
vt 0.857343 0.782145
vt 0.962523 0.782145
vt 0.962523 0.666410
vt 0.575556 0.666410
vt 0.575556 0.782145
vt 0.680735 0.782145
vt 0.680735 0.666410
vt 0.845759 0.782145
vt 0.769039 0.782145
vt 0.692320 0.782145
vt 0.845759 0.666410
vt 0.769039 0.666410
vt 0.692320 0.666410
vt 0.810860 0.629966
vt 0.915427 0.629966
vt 0.814152 0.629966
vt 0.918719 0.629966
s 1
usemtl FirstAid_Mat
f 1/1/1 2/2/1 3/3/1
f 3/3/1 4/4/1 1/1/1
f 4/4/1 3/3/1 5/5/1
f 5/5/1 6/6/1 4/4/1
f 6/6/1 5/5/1 7/7/1
f 7/7/1 8/8/1 6/6/1
f 8/8/1 7/7/1 9/9/1
f 9/9/1 10/10/1 8/8/1
f 10/10/1 9/9/1 11/11/1
f 11/11/1 12/12/1 10/10/1
f 12/12/1 11/11/1 13/13/1
f 13/13/1 14/14/1 12/12/1
f 15/14/2 16/12/2 17/11/2
f 17/11/2 18/13/2 15/14/2
f 16/12/2 19/10/2 20/9/2
f 20/9/2 17/11/2 16/12/2
f 19/10/2 21/8/2 22/7/2
f 22/7/2 20/9/2 19/10/2
f 21/8/2 23/6/2 24/5/2
f 24/5/2 22/7/2 21/8/2
f 23/6/2 25/4/2 26/3/2
f 26/3/2 24/5/2 23/6/2
f 25/4/2 27/1/2 28/2/2
f 28/2/2 26/3/2 25/4/2
f 14/15/3 13/16/3 29/17/4
f 29/17/4 30/18/3 14/15/3
f 31/19/3 32/20/4 28/21/3
f 28/21/3 27/22/3 31/19/3
f 13/13/5 11/11/5 33/11/5
f 33/11/5 29/13/5 13/13/5
f 9/9/5 7/7/5 34/7/5
f 34/7/5 35/9/5 9/9/5
f 7/7/5 5/5/5 36/5/5
f 36/5/5 34/7/5 7/7/5
f 5/5/6 3/3/7 37/3/6
f 37/3/6 36/5/6 5/5/6
f 3/3/5 2/2/5 38/2/5
f 38/2/5 37/3/5 3/3/5
f 29/13/1 33/11/1 39/23/1
f 39/23/1 40/24/1 29/13/1
f 33/11/1 35/9/1 41/25/1
f 33/11/1 41/25/1 42/26/1
f 33/11/1 42/26/1 39/23/1
f 36/5/1 37/3/1 43/27/1
f 43/27/1 44/28/1 45/29/1
f 36/5/1 43/27/1 45/29/1
f 37/3/1 38/2/1 46/30/1
f 46/30/1 43/27/1 37/3/1
f 40/31/5 39/32/8 47/33/8
f 47/33/8 48/34/5 40/31/5
f 39/32/8 42/35/8 49/36/8
f 49/36/8 47/33/8 39/32/8
f 42/35/8 50/37/5 51/38/5
f 51/38/5 49/36/8 42/35/8
f 50/37/5 44/39/9 52/40/9
f 52/40/9 51/38/5 50/37/5
f 44/39/9 43/41/9 53/42/9
f 53/42/9 52/40/9 44/39/9
f 43/41/9 46/43/5 54/44/5
f 54/44/5 53/42/9 43/41/9
f 48/34/5 47/33/8 55/45/8
f 55/45/8 56/46/5 48/34/5
f 47/33/8 49/36/8 57/47/8
f 57/47/8 55/45/8 47/33/8
f 49/36/8 51/38/5 58/48/5
f 58/48/5 57/47/8 49/36/8
f 51/38/5 52/40/9 59/49/9
f 59/49/9 58/48/5 51/38/5
f 52/40/9 53/42/9 60/50/9
f 60/50/9 59/49/9 52/40/9
f 53/42/9 54/44/5 61/51/5
f 61/51/5 60/50/9 53/42/9
f 56/30/2 55/27/2 62/3/2
f 62/3/2 32/2/2 56/30/2
f 55/27/2 57/28/2 63/29/2
f 55/27/2 63/29/2 64/5/2
f 55/27/2 64/5/2 62/3/2
f 58/52/2 65/53/2 63/25/2
f 63/25/2 57/26/2 58/52/2
f 59/28/2 66/29/2 65/53/2
f 65/53/2 58/52/2 59/28/2
f 60/23/2 61/24/2 67/13/2
f 67/13/2 68/11/2 60/23/2
f 32/2/5 62/3/5 26/3/5
f 26/3/5 28/2/5 32/2/5
f 62/3/10 64/5/10 24/5/10
f 24/5/10 26/3/10 62/3/10
f 64/5/5 69/7/5 22/7/5
f 22/7/5 24/5/5 64/5/5
f 69/7/5 70/9/5 20/9/5
f 20/9/5 22/7/5 69/7/5
f 70/9/7 68/11/7 17/11/7
f 17/11/7 20/9/7 70/9/7
f 68/11/5 67/13/5 18/13/5
f 18/13/5 17/11/5 68/11/5
f 2/21/11 1/22/11 71/19/11
f 71/19/11 38/20/12 2/21/11
f 67/54/12 72/55/11 15/56/11
f 15/56/11 18/57/11 67/54/12
f 11/11/10 9/9/10 35/9/10
f 35/9/10 33/11/10 11/11/10
f 44/28/1 50/52/1 73/53/1
f 73/53/1 45/29/1 44/28/1
f 50/52/1 42/26/1 41/25/1
f 41/25/1 73/53/1 50/52/1
f 64/5/5 35/9/5 34/7/5
f 34/7/5 69/7/5 64/5/5
f 69/7/5 34/7/5 36/5/5
f 36/5/5 70/9/5 69/7/5
f 41/29/13 63/29/13 65/53/13
f 65/53/13 73/53/13 41/29/13
f 73/53/13 65/53/13 66/25/13
f 66/25/13 45/25/13 73/53/13
f 63/29/11 41/29/11 35/5/11
f 35/5/11 64/5/11 63/29/11
f 70/9/3 36/9/3 45/25/3
f 45/25/3 66/25/3 70/9/3
f 60/23/2 68/11/2 70/9/2
f 60/23/2 70/9/2 66/25/2
f 60/23/2 66/25/2 59/26/2
f 25/58/13 12/59/13 14/60/13
f 14/60/13 27/61/13 25/58/13
f 15/62/13 1/63/13 4/64/13
f 4/64/13 16/65/13 15/62/13
f 10/66/13 12/59/13 25/58/13
f 8/67/13 10/66/13 25/58/13
f 6/68/13 8/67/13 25/58/13
f 25/58/13 23/69/13 21/70/13
f 6/68/13 25/58/13 21/70/13
f 6/68/13 21/70/13 19/71/13
f 6/68/13 19/71/13 16/65/13
f 6/68/13 16/65/13 4/64/13
f 32/20/4 29/17/4 40/72/14
f 40/72/14 56/73/14 32/20/4
f 31/19/3 30/18/3 29/17/4
f 29/17/4 32/20/4 31/19/3
f 61/74/15 46/75/15 38/20/12
f 38/20/12 67/54/12 61/74/15
f 67/54/12 38/20/12 71/19/11
f 71/19/11 72/55/11 67/54/12
