# WroclawTheGame original CC0 model
o WTG_ReceiptSlip
v -4 -0.1 0
v 4 -0.1 0
v 4 0.1 0
v -4 0.1 0
v -4 -0.1 22
v 4 -0.1 22
v 4 0.1 22
v -4 0.1 22
v -4 -0.21500000000000002 20.5
v 4 -0.21500000000000002 20.5
v 4 -0.06500000000000002 20.5
v -4 -0.06500000000000002 20.5
v -4 -0.21500000000000002 21.1
v 4 -0.21500000000000002 21.1
v 4 -0.06500000000000002 21.1
v -4 -0.06500000000000002 21.1
f 1 2 3 4
f 5 8 7 6
f 1 5 6 2
f 2 6 7 3
f 3 7 8 4
f 5 1 4 8
f 9 10 11 12
f 13 16 15 14
f 9 13 14 10
f 10 14 15 11
f 11 15 16 12
f 13 9 12 16
